<svg width="150" height="150" viewBox="0 0 150 150" fill="none" xmlns="http://www.w3.org/2000/svg">
<path fill-rule="evenodd" clip-rule="evenodd" d="M78.1714 128.014L118.407 87.7786C119.626 86.643 121.238 86.0248 122.903 86.0542C124.568 86.0836 126.157 86.7583 127.335 87.9361C128.513 89.1139 129.188 90.7029 129.217 92.3684C129.247 94.0338 128.628 95.6456 127.493 96.8643L87.2571 137.1C86.0385 138.236 84.4266 138.854 82.7612 138.824C81.0958 138.795 79.5068 138.12 78.3289 136.942C77.1511 135.765 76.4764 134.176 76.447 132.51C76.4177 130.845 77.0359 129.233 78.1714 128.014Z" fill="#F1F3F8"/>
<path fill-rule="evenodd" clip-rule="evenodd" d="M10.5715 95.5429L16.7929 89.3214C17.3814 88.6898 18.0911 88.1832 18.8797 87.8319C19.6683 87.4805 20.5195 87.2916 21.3827 87.2764C22.2459 87.2611 23.1033 87.4199 23.9037 87.7432C24.7042 88.0666 25.4313 88.5478 26.0418 89.1582C26.6522 89.7687 27.1335 90.4958 27.4568 91.2963C27.7801 92.0968 27.9389 92.9542 27.9237 93.8173C27.9084 94.6805 27.7195 95.5318 27.3682 96.3203C27.0168 97.1089 26.5102 97.8186 25.8786 98.4071L19.6572 104.629C19.0686 105.26 18.3589 105.767 17.5704 106.118C16.7818 106.469 15.9305 106.658 15.0674 106.674C14.2042 106.689 13.3468 106.53 12.5463 106.207C11.7459 105.883 11.0187 105.402 10.4083 104.792C9.79783 104.181 9.31659 103.454 8.99327 102.654C8.66994 101.853 8.51116 100.996 8.52639 100.133C8.54162 99.2695 8.73055 98.4182 9.08191 97.6297C9.43327 96.8411 9.93986 96.1314 10.5715 95.5429Z" fill="#F1F3F8"/>
<path fill-rule="evenodd" clip-rule="evenodd" d="M81.0358 107.35L99.4215 88.9643C98.3057 90.1864 97.7042 91.7917 97.7421 93.4461C97.7801 95.1005 98.4545 96.6765 99.6251 97.8462C100.796 99.0159 102.372 99.6891 104.027 99.7257C105.681 99.7623 107.286 99.1596 108.507 98.0429L90.1143 116.429C90.7558 115.843 91.2719 115.133 91.6316 114.343C91.9912 113.552 92.1869 112.697 92.2068 111.828C92.2267 110.96 92.0704 110.097 91.7474 109.29C91.4244 108.484 90.9413 107.752 90.3274 107.137C89.7134 106.523 88.9813 106.039 88.1753 105.715C87.3693 105.392 86.506 105.235 85.6376 105.254C84.7692 105.273 83.9137 105.468 83.1228 105.827C82.3319 106.186 81.6219 106.702 81.0358 107.343" fill="#F1F3F8"/>
<path fill-rule="evenodd" clip-rule="evenodd" d="M73.1715 79.3357L90.4001 62.1429C89.2645 63.3615 88.6463 64.9733 88.6757 66.6388C88.7051 68.3042 89.3798 69.8932 90.5576 71.071C91.7354 72.2489 93.3245 72.9235 94.9899 72.9529C96.6553 72.9823 98.2672 72.3641 99.4858 71.2286L82.2572 88.4571C83.3928 87.2385 84.011 85.6267 83.9816 83.9612C83.9522 82.2958 83.2775 80.7068 82.0997 79.529C80.9219 78.3511 79.3329 77.6765 77.6674 77.6471C76.002 77.6177 74.3902 78.2359 73.1715 79.3714" fill="#F1F3F8"/>
<path fill-rule="evenodd" clip-rule="evenodd" d="M67.0714 103.236L117.336 52.9714C118.553 51.8349 120.165 51.2154 121.83 51.2435C123.496 51.2716 125.085 51.945 126.264 53.1219C127.443 54.2988 128.119 55.8873 128.149 57.5527C128.18 59.2181 127.563 60.8305 126.429 62.05L76.1643 112.321C74.9508 113.485 73.3299 114.127 71.6489 114.109C69.9678 114.092 68.3605 113.417 67.1713 112.229C65.9821 111.04 65.3057 109.434 65.287 107.753C65.2683 106.072 65.9089 104.45 67.0714 103.236Z" fill="#F1F3F8"/>
<path fill-rule="evenodd" clip-rule="evenodd" d="M17.6786 116.864L86.1072 48.4357C86.6933 47.7947 87.4033 47.2791 88.1942 46.9201C88.9851 46.5611 89.8406 46.3661 90.709 46.3469C91.5774 46.3277 92.4406 46.4846 93.2467 46.8083C94.0527 47.1319 94.7848 47.6156 95.3988 48.23C96.0127 48.8444 96.4958 49.5769 96.8188 50.3832C97.1418 51.1895 97.2981 52.0529 97.2782 52.9212C97.2583 53.7896 97.0626 54.6449 96.703 55.4356C96.3433 56.2262 95.8272 56.9358 95.1857 57.5214L26.7643 125.943C25.5431 127.06 23.9382 127.662 22.2838 127.626C20.6294 127.589 19.0528 126.916 17.8822 125.746C16.7116 124.577 16.0372 123 15.9992 121.346C15.9613 119.692 16.5628 118.086 17.6786 116.864Z" fill="#F1F3F8"/>
<path fill-rule="evenodd" clip-rule="evenodd" d="M29.7785 71.8143L55.1643 46.4286C56.3682 45.219 58.0032 44.5372 59.7098 44.5332C60.5548 44.5312 61.392 44.6957 62.1734 45.0172C62.9549 45.3387 63.6653 45.811 64.2643 46.4071C64.8632 47.0033 65.3388 47.7115 65.664 48.4914C65.9893 49.2713 66.1577 50.1077 66.1597 50.9527C66.1616 51.7977 65.9972 52.6349 65.6756 53.4163C65.3541 54.1978 64.8818 54.9082 64.2857 55.5071L38.8571 80.9C37.635 82.0158 36.0297 82.6173 34.3753 82.5793C32.7209 82.5414 31.1449 81.8669 29.9752 80.6963C28.8055 79.5257 28.1323 77.9492 28.0957 76.2948C28.0591 74.6403 28.6618 73.0355 29.7785 71.8143Z" fill="#F1F3F8"/>
<path fill-rule="evenodd" clip-rule="evenodd" d="M71.7786 29.8143L71.9286 29.6643C73.1473 28.5287 74.7591 27.9105 76.4245 27.9399C78.09 27.9693 79.679 28.644 80.8568 29.8218C82.0346 30.9996 82.7093 32.5887 82.7387 34.2541C82.7681 35.9195 82.1499 37.5314 81.0143 38.75L80.8572 38.9C79.6521 40.1017 78.0197 40.7765 76.3179 40.7765C74.6161 40.7765 72.9837 40.1017 71.7786 38.9C70.5748 37.6946 69.8986 36.0607 69.8986 34.3571C69.8986 32.6536 70.5748 31.0196 71.7786 29.8143Z" fill="#F1F3F8"/>
<path fill-rule="evenodd" clip-rule="evenodd" d="M52.3 117.579L52.45 117.429C53.0356 116.787 53.7452 116.271 54.5358 115.911C55.3265 115.552 56.1818 115.356 57.0502 115.336C57.9185 115.316 58.7819 115.472 59.5882 115.796C60.3945 116.119 61.127 116.602 61.7414 117.216C62.3559 117.829 62.8395 118.562 63.1632 119.368C63.4868 120.174 63.6438 121.037 63.6245 121.905C63.6053 122.774 63.4103 123.629 63.0513 124.42C62.6923 125.211 62.1767 125.921 61.5357 126.507L61.3857 126.664C60.1803 127.868 58.5464 128.544 56.8428 128.544C55.1393 128.544 53.5053 127.868 52.3 126.664C51.0961 125.459 50.4199 123.825 50.4199 122.121C50.4199 120.418 51.0961 118.784 52.3 117.579Z" fill="#F1F3F8"/>
<path fill-rule="evenodd" clip-rule="evenodd" d="M138.886 140.336C139.308 140.19 139.754 140.127 140.2 140.15C140.644 140.15 141.086 140.193 141.521 140.279C141.609 140.299 141.687 140.349 141.743 140.42C141.799 140.49 141.829 140.578 141.829 140.668C141.829 140.758 141.799 140.845 141.743 140.916C141.687 140.987 141.609 141.036 141.521 141.057C141.086 141.142 140.644 141.185 140.2 141.186C139.754 141.208 139.308 141.145 138.886 141C138.816 140.977 138.755 140.932 138.712 140.873C138.669 140.813 138.646 140.741 138.646 140.668C138.646 140.594 138.669 140.523 138.712 140.463C138.755 140.403 138.816 140.359 138.886 140.336Z" fill="#717790"/>
<path fill-rule="evenodd" clip-rule="evenodd" d="M18.5072 140.35C23.4429 140.207 28.3786 140.186 33.3143 140.186H48.1143H77.7286H107.336H122.143C127.079 140.186 132.007 140.186 136.943 140.329C137.043 140.342 137.134 140.391 137.2 140.466C137.266 140.542 137.303 140.639 137.303 140.739C137.303 140.84 137.266 140.937 137.2 141.012C137.134 141.088 137.043 141.137 136.943 141.15C132.007 141.279 127.079 141.286 122.143 141.293H107.336H77.7286H48.1143H33.3143C28.3786 141.293 23.4429 141.293 18.5072 141.129C18.4653 141.128 18.424 141.118 18.3857 141.101C18.3475 141.084 18.313 141.06 18.2844 141.029C18.2558 140.998 18.2336 140.962 18.2191 140.923C18.2046 140.884 18.1981 140.842 18.2 140.8C18.2035 140.72 18.237 140.644 18.2939 140.587C18.3507 140.53 18.4268 140.496 18.5072 140.493" fill="#717790"/>
<path fill-rule="evenodd" clip-rule="evenodd" d="M15.5929 140.2C15.657 140.193 15.7217 140.193 15.7858 140.2H15.8786C15.9143 140.208 15.9482 140.223 15.9786 140.243C16.0847 140.317 16.1576 140.429 16.1816 140.556C16.2057 140.683 16.1789 140.814 16.1072 140.921C16.0718 140.971 16.0283 141.015 15.9786 141.05C15.9482 141.07 15.9143 141.085 15.8786 141.093H15.7858C15.7217 141.1 15.657 141.1 15.5929 141.093C15.5314 141.079 15.4732 141.054 15.4216 141.018C15.37 140.982 15.326 140.936 15.2922 140.883C15.2584 140.83 15.2353 140.77 15.2244 140.708C15.2135 140.646 15.2149 140.583 15.2286 140.521C15.2466 140.432 15.2908 140.349 15.3556 140.284C15.4204 140.219 15.503 140.175 15.5929 140.157" fill="#717790"/>
<path fill-rule="evenodd" clip-rule="evenodd" d="M10.85 140.329C11.1634 140.251 11.4844 140.208 11.8071 140.2C12.1311 140.172 12.4575 140.201 12.7714 140.286C12.8727 140.317 12.9575 140.387 13.0071 140.481C13.0566 140.575 13.0669 140.684 13.0357 140.786C13.0149 140.847 12.9803 140.903 12.9345 140.949C12.8886 140.995 12.8328 141.029 12.7714 141.05C12.4575 141.135 12.1311 141.164 11.8071 141.136C11.4844 141.128 11.1634 141.084 10.85 141.007C10.8049 140.996 10.7624 140.977 10.7251 140.949C10.6879 140.921 10.6566 140.886 10.6333 140.846C10.6099 140.806 10.5949 140.762 10.5892 140.716C10.5834 140.67 10.5871 140.623 10.6 140.579C10.6135 140.517 10.6442 140.461 10.6885 140.417C10.7328 140.373 10.7888 140.342 10.85 140.329Z" fill="#717790"/>
<path fill-rule="evenodd" clip-rule="evenodd" d="M64.0858 146.65C65.6286 146.507 67.1644 146.486 68.7072 146.486H73.3286L82.5715 146.429H96.4286C97.9715 146.429 99.5143 146.429 101.05 146.571C101.105 146.575 101.158 146.589 101.207 146.614C101.255 146.638 101.299 146.672 101.335 146.713C101.371 146.754 101.398 146.802 101.415 146.853C101.433 146.905 101.44 146.96 101.436 147.014C101.425 147.113 101.381 147.205 101.311 147.275C101.241 147.345 101.149 147.389 101.05 147.4C99.5143 147.521 97.9715 147.529 96.4286 147.536H82.5715L73.3286 147.486H68.7072C67.1644 147.486 65.6286 147.486 64.0858 147.321C64.0097 147.31 63.9402 147.272 63.89 147.213C63.8397 147.155 63.8121 147.081 63.8121 147.004C63.8121 146.927 63.8397 146.852 63.89 146.794C63.9402 146.736 64.0097 146.697 64.0858 146.686" fill="#717790"/>
<path fill-rule="evenodd" clip-rule="evenodd" d="M48.8786 146.629C50.4571 146.543 52.0357 146.514 53.6143 146.5C55.1929 146.486 56.7714 146.5 58.35 146.586C58.4424 146.598 58.527 146.644 58.5883 146.714C58.6496 146.785 58.6833 146.875 58.6833 146.968C58.6833 147.061 58.6496 147.151 58.5883 147.221C58.527 147.292 58.4424 147.337 58.35 147.35C56.7714 147.45 55.1929 147.457 53.6143 147.436C52.0357 147.414 50.4571 147.393 48.8786 147.307C48.8332 147.306 48.7885 147.296 48.7472 147.278C48.7058 147.259 48.6687 147.232 48.638 147.199C48.6073 147.165 48.5836 147.126 48.5685 147.083C48.5534 147.041 48.5471 146.995 48.55 146.95C48.5568 146.866 48.5937 146.787 48.6541 146.728C48.7145 146.669 48.7942 146.633 48.8786 146.629Z" fill="#717790"/>
<path d="M134.486 114.286C134.101 114.286 133.726 114.172 133.406 113.958C133.087 113.745 132.838 113.441 132.691 113.086C132.544 112.731 132.505 112.341 132.58 111.964C132.655 111.587 132.84 111.241 133.112 110.969C133.384 110.697 133.73 110.512 134.107 110.437C134.484 110.362 134.874 110.401 135.229 110.548C135.584 110.695 135.888 110.944 136.101 111.263C136.315 111.583 136.429 111.959 136.429 112.343C136.429 112.858 136.224 113.352 135.86 113.717C135.495 114.081 135.001 114.286 134.486 114.286ZM134.486 111.836C134.384 111.836 134.284 111.866 134.199 111.923C134.115 111.98 134.049 112.06 134.01 112.155C133.971 112.249 133.961 112.353 133.982 112.453C134.002 112.553 134.052 112.645 134.125 112.716C134.197 112.788 134.29 112.836 134.39 112.855C134.49 112.874 134.594 112.863 134.688 112.823C134.781 112.783 134.861 112.716 134.917 112.63C134.972 112.545 135.001 112.445 135 112.343C135.001 112.275 134.988 112.207 134.963 112.144C134.937 112.081 134.9 112.023 134.852 111.975C134.804 111.926 134.747 111.888 134.684 111.861C134.621 111.835 134.554 111.821 134.486 111.821V111.836Z" fill="#C8D6EC"/>
<path d="M3.82867 56.3857C3.63923 56.3857 3.45754 56.3105 3.32359 56.1765C3.18963 56.0426 3.11438 55.8609 3.11438 55.6714V49.6C3.11438 49.4106 3.18963 49.2289 3.32359 49.0949C3.45754 48.961 3.63923 48.8857 3.82867 48.8857C4.01811 48.8857 4.19979 48.961 4.33374 49.0949C4.4677 49.2289 4.54295 49.4106 4.54295 49.6V55.6714C4.54295 55.8609 4.4677 56.0426 4.33374 56.1765C4.19979 56.3105 4.01811 56.3857 3.82867 56.3857Z" fill="#C8D6EC"/>
<path d="M6.86433 53.35H0.792899C0.603459 53.35 0.421777 53.2747 0.287823 53.1408C0.153868 53.0068 0.0786133 52.8252 0.0786133 52.6357C0.0786133 52.4463 0.153868 52.2646 0.287823 52.1306C0.421777 51.9967 0.603459 51.9214 0.792899 51.9214H6.86433C7.05377 51.9214 7.23545 51.9967 7.3694 52.1306C7.50336 52.2646 7.57861 52.4463 7.57861 52.6357C7.57861 52.8252 7.50336 53.0068 7.3694 53.1408C7.23545 53.2747 7.05377 53.35 6.86433 53.35Z" fill="#C8D6EC"/>
<path d="M43.3429 49.7286C42.9586 49.7286 42.583 49.6146 42.2635 49.4011C41.944 49.1877 41.695 48.8842 41.5479 48.5292C41.4009 48.1742 41.3624 47.7836 41.4374 47.4067C41.5123 47.0298 41.6974 46.6836 41.9691 46.4119C42.2408 46.1402 42.587 45.9552 42.9638 45.8802C43.3407 45.8052 43.7314 45.8437 44.0864 45.9908C44.4414 46.1378 44.7448 46.3868 44.9583 46.7063C45.1718 47.0258 45.2857 47.4015 45.2857 47.7857C45.2857 48.301 45.081 48.7952 44.7167 49.1595C44.3523 49.5239 43.8582 49.7286 43.3429 49.7286ZM43.3429 47.2786C43.2409 47.2786 43.1412 47.3089 43.0564 47.3658C42.9717 47.4226 42.9058 47.5033 42.8671 47.5977C42.8284 47.6921 42.8186 47.7959 42.8391 47.8959C42.8595 47.9958 42.9092 48.0874 42.9818 48.159C43.0545 48.2307 43.1468 48.2791 43.247 48.2981C43.3472 48.3172 43.4509 48.3059 43.5447 48.2659C43.6385 48.2259 43.7183 48.1589 43.774 48.0734C43.8296 47.9879 43.8586 47.8877 43.8572 47.7857C43.8553 47.6506 43.8003 47.5216 43.704 47.4267C43.6078 47.3318 43.4781 47.2786 43.3429 47.2786Z" fill="#C8D6EC"/>
<path d="M134.871 76.3C134.487 76.3 134.112 76.186 133.792 75.9726C133.473 75.7591 133.224 75.4557 133.076 75.1006C132.929 74.7456 132.891 74.355 132.966 73.9781C133.041 73.6012 133.226 73.255 133.498 72.9833C133.769 72.7116 134.116 72.5266 134.492 72.4516C134.869 72.3767 135.26 72.4151 135.615 72.5622C135.97 72.7092 136.273 72.9583 136.487 73.2778C136.7 73.5973 136.814 73.9729 136.814 74.3571C136.814 74.8724 136.61 75.3666 136.245 75.7309C135.881 76.0953 135.387 76.3 134.871 76.3ZM134.871 73.85C134.769 73.85 134.67 73.8804 134.585 73.9372C134.5 73.994 134.434 74.0748 134.396 74.1692C134.357 74.2636 134.347 74.3673 134.368 74.4673C134.388 74.5672 134.438 74.6588 134.51 74.7305C134.583 74.8021 134.675 74.8505 134.776 74.8695C134.876 74.8886 134.979 74.8774 135.073 74.8373C135.167 74.7973 135.247 74.7303 135.303 74.6448C135.358 74.5593 135.387 74.4592 135.386 74.3571C135.386 74.2899 135.372 74.2234 135.346 74.1614C135.321 74.0994 135.283 74.0432 135.235 73.996C135.187 73.9488 135.13 73.9116 135.068 73.8865C135.005 73.8615 134.939 73.8491 134.871 73.85Z" fill="#C8D6EC"/>
<path d="M66.7786 43.9214C66.6539 43.9195 66.5314 43.8877 66.4215 43.8286C66.3395 43.7817 66.2676 43.7191 66.21 43.6443C66.1524 43.5695 66.1102 43.4841 66.0858 43.3929L65.4929 41.2071C65.468 41.1166 65.4612 41.0221 65.4728 40.9289C65.4844 40.8357 65.5143 40.7458 65.5608 40.6642C65.6072 40.5826 65.6693 40.511 65.7434 40.4534C65.8176 40.3958 65.9024 40.3534 65.9929 40.3286L68.1786 39.7286C68.2692 39.7036 68.3637 39.6968 68.4569 39.7084C68.55 39.7201 68.64 39.75 68.7216 39.7964C68.8032 39.8429 68.8748 39.9049 68.9324 39.9791C68.99 40.0532 69.0324 40.138 69.0572 40.2286L69.6572 42.4214C69.6821 42.5119 69.689 42.6065 69.6773 42.6997C69.6657 42.7928 69.6358 42.8828 69.5894 42.9644C69.5429 43.046 69.4808 43.1176 69.4067 43.1752C69.3325 43.2328 69.2478 43.2752 69.1572 43.3L66.9644 43.8929C66.9046 43.9132 66.8417 43.9229 66.7786 43.9214ZM67.0572 41.5143L67.2786 42.3286L68.0858 42.1429L67.8572 41.3L67.0572 41.5143Z" fill="#C8D6EC"/>
<path d="M27.4214 87.6071C26.9976 87.6071 26.5833 87.4815 26.2309 87.246C25.8785 87.0105 25.6039 86.6759 25.4417 86.2843C25.2795 85.8928 25.2371 85.4619 25.3197 85.0462C25.4024 84.6306 25.6065 84.2487 25.9062 83.949C26.2059 83.6494 26.5877 83.4453 27.0034 83.3626C27.419 83.2799 27.8499 83.3224 28.2415 83.4845C28.633 83.6467 28.9677 83.9214 29.2031 84.2738C29.4386 84.6262 29.5643 85.0405 29.5643 85.4643C29.5643 86.0326 29.3385 86.5776 28.9367 86.9795C28.5348 87.3814 27.9897 87.6071 27.4214 87.6071ZM27.4214 84.75C27.2801 84.75 27.1421 84.7919 27.0246 84.8704C26.9071 84.9489 26.8156 85.0604 26.7615 85.1909C26.7074 85.3215 26.6933 85.4651 26.7209 85.6036C26.7484 85.7422 26.8165 85.8695 26.9163 85.9694C27.0162 86.0692 27.1435 86.1373 27.2821 86.1648C27.4206 86.1924 27.5642 86.1783 27.6948 86.1242C27.8253 86.0701 27.9368 85.9786 28.0153 85.8611C28.0938 85.7437 28.1357 85.6055 28.1357 85.4643C28.1357 85.2748 28.0605 85.0932 27.9265 84.9592C27.7925 84.8252 27.6109 84.75 27.4214 84.75Z" fill="#C8D6EC"/>
<path d="M81.6928 106.486H81.6357C81.1857 106.407 80.6857 106.314 80.1428 106.2C80.0969 106.191 80.0532 106.172 80.0143 106.146C79.9754 106.12 79.9421 106.086 79.9163 106.047C79.8904 106.008 79.8725 105.964 79.8636 105.918C79.8546 105.872 79.8549 105.825 79.8643 105.779C79.8864 105.688 79.9422 105.608 80.0203 105.557C80.0985 105.505 80.1933 105.485 80.2857 105.5C80.8214 105.614 81.3143 105.707 81.7571 105.779C81.8518 105.787 81.9393 105.833 82.0003 105.906C82.0612 105.979 82.0907 106.073 82.0821 106.168C82.0736 106.263 82.0278 106.35 81.9548 106.411C81.8818 106.472 81.7876 106.501 81.6928 106.493V106.486ZM78.7428 105.886H78.6643C78.1928 105.771 77.7 105.657 77.1857 105.521C77.1388 105.51 77.0947 105.489 77.0558 105.46C77.017 105.431 76.9842 105.395 76.9593 105.354C76.9344 105.312 76.918 105.266 76.9109 105.218C76.9037 105.171 76.9061 105.122 76.9178 105.075C76.9296 105.028 76.9504 104.984 76.9792 104.945C77.008 104.906 77.0441 104.873 77.0856 104.849C77.127 104.824 77.173 104.807 77.2208 104.8C77.2686 104.793 77.3174 104.795 77.3643 104.807C77.8714 104.943 78.3571 105.057 78.7928 105.164C78.8389 105.174 78.8825 105.194 78.9211 105.221C78.9598 105.248 78.9926 105.282 79.0179 105.322C79.0431 105.362 79.0602 105.406 79.0682 105.453C79.0761 105.499 79.0748 105.547 79.0643 105.593C79.0493 105.67 79.0099 105.74 78.952 105.793C78.8941 105.845 78.8208 105.878 78.7428 105.886ZM75.8286 105.129C75.7956 105.136 75.7615 105.136 75.7286 105.129C75.25 104.993 74.7643 104.85 74.3 104.693C74.2548 104.679 74.2128 104.656 74.1765 104.626C74.1401 104.596 74.1101 104.559 74.0882 104.517C74.0662 104.475 74.0528 104.429 74.0487 104.382C74.0446 104.335 74.0499 104.288 74.0643 104.243C74.0937 104.153 74.1576 104.078 74.242 104.035C74.3264 103.993 74.4243 103.985 74.5143 104.014L75.9428 104.443C75.9897 104.449 76.035 104.464 76.076 104.488C76.117 104.511 76.1529 104.543 76.1818 104.58C76.2106 104.618 76.2318 104.661 76.2441 104.706C76.2565 104.752 76.2597 104.8 76.2536 104.846C76.2475 104.893 76.2322 104.939 76.2086 104.98C76.185 105.021 76.1536 105.057 76.1161 105.085C76.0786 105.114 76.0359 105.135 75.9902 105.148C75.9445 105.16 75.8969 105.163 75.85 105.157L75.8286 105.129ZM72.9714 104.221C72.9312 104.228 72.8902 104.228 72.85 104.221C72.3786 104.057 71.9071 103.879 71.4214 103.693C71.3337 103.659 71.2628 103.592 71.224 103.507C71.1852 103.421 71.1817 103.324 71.2143 103.236C71.2309 103.191 71.2562 103.151 71.2886 103.116C71.321 103.082 71.3599 103.054 71.4031 103.035C71.4463 103.016 71.4929 103.005 71.5402 103.004C71.5875 103.003 71.6345 103.011 71.6786 103.029C72.15 103.207 72.6143 103.386 73.1071 103.543C73.1963 103.575 73.2693 103.641 73.3107 103.726C73.352 103.812 73.3584 103.91 73.3286 104C73.2994 104.072 73.2472 104.133 73.1802 104.173C73.1131 104.213 73.0347 104.23 72.9571 104.221H72.9714ZM70.1643 103.129C70.1173 103.139 70.0684 103.139 70.0214 103.129C69.5571 102.936 69.1 102.729 68.6357 102.507C68.59 102.489 68.5486 102.462 68.5139 102.427C68.4792 102.393 68.452 102.351 68.434 102.306C68.416 102.26 68.4076 102.211 68.4093 102.162C68.4111 102.113 68.4229 102.065 68.444 102.021C68.4652 101.976 68.4952 101.937 68.5322 101.905C68.5693 101.873 68.6126 101.849 68.6594 101.834C68.7062 101.819 68.7555 101.814 68.8043 101.82C68.853 101.825 68.9002 101.84 68.9428 101.864C69.3928 102.079 69.85 102.279 70.3 102.471C70.3874 102.509 70.4565 102.58 70.4925 102.668C70.5285 102.756 70.5287 102.855 70.4928 102.943C70.4598 103.004 70.4099 103.054 70.349 103.087C70.2881 103.12 70.219 103.134 70.15 103.129H70.1643ZM67.4428 101.843C67.3853 101.843 67.3286 101.828 67.2786 101.8C66.8286 101.571 66.3857 101.321 65.9428 101.086C65.8613 101.037 65.8021 100.958 65.7781 100.865C65.7541 100.773 65.7671 100.676 65.8143 100.593C65.8646 100.513 65.9436 100.455 66.0352 100.431C66.1268 100.407 66.2241 100.419 66.3071 100.464C66.7357 100.714 67.1714 100.957 67.6071 101.179C67.6767 101.216 67.7319 101.276 67.764 101.348C67.796 101.42 67.8033 101.501 67.7845 101.578C67.7657 101.655 67.722 101.723 67.6601 101.772C67.5983 101.821 67.5219 101.849 67.4428 101.85V101.843ZM64.8428 100.336C64.7746 100.334 64.7079 100.315 64.65 100.279C64.2214 100 63.8 99.7143 63.3928 99.4143C63.3161 99.3584 63.2647 99.2743 63.25 99.1806C63.2353 99.0868 63.2584 98.991 63.3143 98.9143C63.3702 98.8376 63.4542 98.7862 63.548 98.7714C63.6418 98.7567 63.7375 98.7798 63.8143 98.8357C64.2143 99.1286 64.6214 99.4071 65.0357 99.6786C65.1152 99.7298 65.1711 99.8105 65.1911 99.9029C65.2112 99.9952 65.1939 100.092 65.1428 100.171C65.1088 100.223 65.062 100.266 65.007 100.294C64.952 100.323 64.8906 100.337 64.8286 100.336H64.8428ZM62.4 98.5714C62.3168 98.5739 62.2355 98.5459 62.1714 98.4929C61.7714 98.1643 61.3857 97.8214 61.0214 97.4786C60.9882 97.446 60.9617 97.4071 60.9437 97.3642C60.9257 97.3212 60.9164 97.2751 60.9164 97.2286C60.9164 97.182 60.9257 97.1359 60.9437 97.093C60.9617 97.0501 60.9882 97.0112 61.0214 96.9786C61.0546 96.9451 61.0941 96.9185 61.1376 96.9004C61.1812 96.8823 61.2278 96.8729 61.275 96.8729C61.3221 96.8729 61.3688 96.8823 61.4123 96.9004C61.4559 96.9185 61.4954 96.9451 61.5286 96.9786C61.8786 97.3071 62.2428 97.6357 62.6428 97.9571C62.6981 98.0044 62.7376 98.0674 62.7561 98.1377C62.7746 98.208 62.7712 98.2823 62.7464 98.3506C62.7215 98.419 62.6764 98.4781 62.6171 98.5201C62.5577 98.5621 62.487 98.585 62.4143 98.5857L62.4 98.5714ZM60.2143 96.5071C60.1646 96.5079 60.1154 96.4981 60.0698 96.4784C60.0243 96.4587 59.9834 96.4296 59.95 96.3929C59.6 96.0143 59.2357 95.6214 58.9643 95.2214C58.9275 95.1859 58.8987 95.143 58.8799 95.0954C58.8612 95.0479 58.8528 94.9969 58.8554 94.9459C58.8581 94.8948 58.8717 94.8449 58.8952 94.7996C58.9188 94.7542 58.9518 94.7144 58.9921 94.683C59.0324 94.6515 59.0789 94.629 59.1286 94.617C59.1783 94.6051 59.23 94.6039 59.2802 94.6137C59.3304 94.6234 59.3779 94.6438 59.4195 94.6735C59.4611 94.7032 59.4959 94.7414 59.5214 94.7857C59.8214 95.1643 60.1428 95.5429 60.4786 95.9071C60.5444 95.9751 60.5813 96.066 60.5813 96.1607C60.5813 96.2554 60.5444 96.3463 60.4786 96.4143C60.4419 96.4442 60.3997 96.4666 60.3543 96.4801C60.3089 96.4936 60.2613 96.4979 60.2143 96.4928V96.5071ZM58.3714 94.1429C58.3118 94.1421 58.2532 94.1268 58.2009 94.0981C58.1486 94.0695 58.1042 94.0284 58.0714 93.9786C57.7928 93.55 57.5286 93.1071 57.2928 92.6571C57.2499 92.5737 57.2416 92.4767 57.2697 92.3871C57.2978 92.2975 57.36 92.2226 57.4428 92.1786C57.4841 92.1559 57.5294 92.1417 57.5762 92.1366C57.6229 92.1316 57.6703 92.1358 57.7154 92.1491C57.7605 92.1623 57.8026 92.1844 57.8392 92.214C57.8757 92.2436 57.9061 92.2801 57.9286 92.3214C58.145 92.7571 58.3834 93.1814 58.6428 93.5929C58.6939 93.6725 58.7112 93.769 58.6911 93.8614C58.6711 93.9538 58.6152 94.0345 58.5357 94.0857C58.4849 94.1122 58.4287 94.1269 58.3714 94.1286V94.1429ZM56.9428 91.4928C56.8726 91.4916 56.8041 91.47 56.7458 91.4307C56.6875 91.3914 56.6418 91.3361 56.6143 91.2714C56.419 90.8042 56.2473 90.3274 56.1 89.8429C56.0729 89.7519 56.0824 89.654 56.1265 89.57C56.1705 89.486 56.2456 89.4224 56.3357 89.3929C56.4257 89.366 56.5226 89.3757 56.6055 89.4199C56.6884 89.464 56.7505 89.539 56.7786 89.6286C56.9207 90.099 57.0876 90.5615 57.2786 91.0143C57.3049 91.0886 57.3058 91.1696 57.2812 91.2445C57.2567 91.3195 57.208 91.3842 57.1428 91.4286C57.0923 91.4627 57.0324 91.4802 56.9714 91.4786L56.9428 91.4928ZM56.0714 88.6357C55.9894 88.6344 55.9103 88.6055 55.8468 88.5537C55.7833 88.5018 55.7391 88.4301 55.7214 88.35C55.6214 87.85 55.5428 87.3429 55.4857 86.8357C55.4797 86.7892 55.4832 86.7419 55.4959 86.6967C55.5086 86.6515 55.5302 86.6093 55.5596 86.5727C55.5889 86.536 55.6253 86.5056 55.6666 86.4833C55.7079 86.461 55.7533 86.4473 55.8 86.4429C55.8937 86.4328 55.9876 86.4602 56.0611 86.5191C56.1347 86.5779 56.1821 86.6635 56.1928 86.7571C56.25 87.2429 56.3214 87.7286 56.4214 88.1857C56.4385 88.2783 56.419 88.374 56.367 88.4526C56.3151 88.5311 56.2347 88.5865 56.1428 88.6071L56.0714 88.6357ZM55.7357 85.65C55.6434 85.6501 55.5547 85.6144 55.4881 85.5505C55.4215 85.4866 55.3822 85.3994 55.3786 85.3071C55.3786 85.15 55.3786 84.9928 55.3786 84.8357C55.3786 84.4857 55.3786 84.1214 55.3786 83.7714C55.3813 83.7245 55.3933 83.6786 55.4138 83.6363C55.4343 83.594 55.463 83.5562 55.4981 83.525C55.5333 83.4938 55.5743 83.4698 55.6187 83.4545C55.6632 83.4392 55.7102 83.4328 55.7571 83.4357C55.8041 83.4384 55.85 83.4504 55.8923 83.4709C55.9346 83.4915 55.9724 83.5201 56.0036 83.5553C56.0348 83.5905 56.0587 83.6314 56.074 83.6759C56.0894 83.7203 56.0957 83.7674 56.0928 83.8143C56.0928 84.1571 56.0928 84.5286 56.0928 84.8357C56.0928 84.9857 56.0928 85.1357 56.0928 85.2857C56.0948 85.3329 56.0871 85.3799 56.0704 85.424C56.0537 85.4682 56.0282 85.5085 55.9955 85.5425C55.9628 85.5765 55.9236 85.6036 55.8802 85.6221C55.8367 85.6405 55.79 85.65 55.7428 85.65H55.7357ZM87.1428 85C87.0487 84.9982 86.9589 84.96 86.8923 84.8934C86.8257 84.8268 86.7875 84.737 86.7857 84.6429C86.7857 84.5481 86.8233 84.4573 86.8903 84.3903C86.9573 84.3233 87.0481 84.2857 87.1428 84.2857C87.65 84.2857 88.15 84.2857 88.6357 84.25C88.7304 84.25 88.8213 84.2876 88.8882 84.3546C88.9552 84.4216 88.9928 84.5124 88.9928 84.6071C88.9928 84.7019 88.9552 84.7927 88.8882 84.8597C88.8213 84.9267 88.7304 84.9643 88.6357 84.9643C88.1357 84.9643 87.6357 84.9643 87.1214 85H87.1428ZM85.6428 85C85.15 85 84.6428 85 84.1286 84.95C84.0819 84.9482 84.0362 84.9371 83.9939 84.9173C83.9517 84.8976 83.9138 84.8696 83.8825 84.835C83.8512 84.8004 83.8272 84.7598 83.8118 84.7158C83.7964 84.6718 83.79 84.6251 83.7928 84.5786C83.7937 84.5316 83.8041 84.4854 83.8235 84.4426C83.8429 84.3999 83.8709 84.3616 83.9058 84.3302C83.9406 84.2987 83.9815 84.2747 84.026 84.2597C84.0704 84.2447 84.1175 84.2389 84.1643 84.2429L85.6571 84.2857C85.7518 84.2857 85.8427 84.3233 85.9097 84.3903C85.9766 84.4573 86.0143 84.5481 86.0143 84.6429C86.0143 84.7376 85.9766 84.8284 85.9097 84.8954C85.8427 84.9624 85.7518 85 85.6571 85H85.6428ZM90.15 84.9C90.0553 84.9 89.9644 84.8624 89.8974 84.7954C89.8305 84.7284 89.7928 84.6376 89.7928 84.5429C89.7928 84.4481 89.8305 84.3573 89.8974 84.2903C89.9644 84.2233 90.0553 84.1857 90.15 84.1857C90.65 84.1857 91.15 84.1143 91.6286 84.0643C91.6751 84.0583 91.7224 84.0618 91.7676 84.0745C91.8128 84.0872 91.855 84.1088 91.8916 84.1382C91.9283 84.1675 91.9586 84.2039 91.9809 84.2452C92.0032 84.2865 92.017 84.3318 92.0214 84.3786C92.0315 84.4723 92.0041 84.5661 91.9452 84.6397C91.8863 84.7133 91.8008 84.7607 91.7071 84.7714C91.2143 84.8214 90.7071 84.8643 90.1928 84.9H90.15ZM82.6428 84.9C82.15 84.9 81.65 84.8286 81.1357 84.7786C81.089 84.775 81.0435 84.7621 81.0019 84.7407C80.9603 84.7192 80.9234 84.6896 80.8935 84.6537C80.8635 84.6177 80.841 84.5761 80.8274 84.5313C80.8138 84.4865 80.8094 84.4394 80.8143 84.3929C80.8233 84.2993 80.8689 84.2131 80.9411 84.1529C81.0133 84.0927 81.1063 84.0635 81.2 84.0714L82.6928 84.1929C82.7395 84.1956 82.7851 84.2076 82.827 84.2282C82.869 84.2488 82.9063 84.2776 82.937 84.3129C82.9676 84.3481 82.9908 84.3892 83.0053 84.4336C83.0198 84.478 83.0253 84.5249 83.0214 84.5714C83.0057 84.6621 82.9549 84.7428 82.88 84.7963C82.8052 84.8498 82.7123 84.8716 82.6214 84.8571L82.6428 84.9ZM79.6428 84.6286C79.15 84.5714 78.65 84.5143 78.1428 84.4429C78.0961 84.4376 78.0508 84.423 78.0098 84.3998C77.9688 84.3767 77.9329 84.3455 77.9042 84.3082C77.8755 84.2708 77.8547 84.2281 77.8429 84.1825C77.8311 84.1369 77.8287 84.0894 77.8357 84.0429C77.8481 83.9491 77.8972 83.8642 77.9722 83.8066C78.0472 83.749 78.142 83.7235 78.2357 83.7357L79.7214 83.9214C79.8161 83.9271 79.9047 83.9702 79.9677 84.0412C80.0306 84.1122 80.0628 84.2053 80.0571 84.3C80.0514 84.3947 80.0084 84.4833 79.9374 84.5463C79.8664 84.6092 79.7733 84.6414 79.6786 84.6357L79.6428 84.6286ZM93.1357 84.6286C93.0888 84.6319 93.0417 84.6259 92.9971 84.6109C92.9525 84.596 92.9113 84.5725 92.8758 84.5416C92.8042 84.4794 92.7602 84.3911 92.7536 84.2964C92.7469 84.2017 92.7782 84.1082 92.8405 84.0366C92.9028 83.9649 92.991 83.9209 93.0857 83.9143C93.5928 83.85 94.0786 83.7714 94.5571 83.6857C94.604 83.6773 94.6521 83.6782 94.6987 83.6883C94.7453 83.6984 94.7894 83.7177 94.8285 83.7449C94.8676 83.7721 94.901 83.8067 94.9268 83.8468C94.9525 83.8869 94.9701 83.9317 94.9786 83.9786C94.987 84.0255 94.9861 84.0736 94.976 84.1201C94.9658 84.1667 94.9466 84.2108 94.9194 84.2499C94.8922 84.2891 94.8576 84.3225 94.8175 84.3482C94.7774 84.374 94.7326 84.3916 94.6857 84.4C94.2 84.4857 93.7 84.5714 93.1857 84.6429L93.1357 84.6286ZM76.6643 84.2357H76.6143L75.1214 83.9928C75.0752 83.9859 75.0308 83.9698 74.9909 83.9455C74.951 83.9211 74.9164 83.889 74.8891 83.8511C74.8618 83.8131 74.8424 83.7701 74.832 83.7245C74.8216 83.6789 74.8204 83.6317 74.8286 83.5857C74.8355 83.5395 74.8516 83.4951 74.8759 83.4552C74.9003 83.4153 74.9324 83.3807 74.9703 83.3534C75.0083 83.3261 75.0513 83.3066 75.0969 83.2963C75.1425 83.2859 75.1897 83.2847 75.2357 83.2929L76.7143 83.5286C76.809 83.5352 76.8972 83.5792 76.9595 83.6509C77.0218 83.7225 77.053 83.816 77.0464 83.9107C77.0398 84.0054 76.9958 84.0936 76.9241 84.1559C76.8525 84.2182 76.759 84.2495 76.6643 84.2429V84.2357ZM96.0928 84.0929C96.0115 84.0932 95.9325 84.0658 95.8688 84.0152C95.8052 83.9645 95.7607 83.8936 95.7428 83.8143C95.7235 83.7216 95.741 83.625 95.7917 83.545C95.8424 83.465 95.9222 83.4079 96.0143 83.3857C96.5071 83.2786 96.9857 83.1571 97.4428 83.0286C97.5338 83.0045 97.6305 83.0172 97.7121 83.064C97.7937 83.1108 97.8535 83.1879 97.8786 83.2786C97.9029 83.3704 97.8903 83.4681 97.8436 83.5508C97.7969 83.6336 97.7197 83.6948 97.6286 83.7214C97.15 83.85 96.6643 83.9714 96.1571 84.0857L96.0928 84.0929ZM73.7 83.7357H73.6357C73.1428 83.6429 72.65 83.55 72.15 83.4429C72.1043 83.4343 72.0608 83.4168 72.022 83.3912C71.9831 83.3657 71.9498 83.3327 71.9238 83.2941C71.8979 83.2556 71.8799 83.2122 71.8709 83.1666C71.8619 83.121 71.8621 83.0741 71.8714 83.0286C71.8904 82.9353 71.9452 82.8533 72.0239 82.7999C72.1027 82.7465 72.1992 82.726 72.2928 82.7428C72.7928 82.8429 73.2786 82.9429 73.7643 83.0286C73.8569 83.0459 73.939 83.0992 73.9925 83.1768C74.046 83.2544 74.0667 83.3501 74.05 83.4429C74.027 83.5214 73.9773 83.5893 73.9095 83.635C73.8416 83.6807 73.7599 83.7011 73.6786 83.6929L73.7 83.7357ZM98.9857 83.3C98.9106 83.2989 98.8377 83.2742 98.7774 83.2293C98.7171 83.1844 98.6725 83.1217 98.65 83.05C98.6345 83.0055 98.6281 82.9583 98.6313 82.9113C98.6345 82.8642 98.6471 82.8183 98.6684 82.7763C98.6898 82.7343 98.7194 82.697 98.7555 82.6667C98.7916 82.6364 98.8335 82.6137 98.8786 82.6C99.3571 82.4429 99.8214 82.2786 100.271 82.1C100.315 82.0828 100.363 82.0745 100.41 82.0756C100.457 82.0767 100.504 82.0872 100.547 82.1065C100.59 82.1258 100.629 82.1534 100.661 82.1879C100.694 82.2223 100.719 82.2629 100.736 82.3071C100.768 82.3953 100.765 82.4927 100.726 82.5782C100.687 82.6638 100.616 82.7306 100.529 82.7643C100.071 82.9429 99.5928 83.1143 99.1 83.2786C99.0537 83.2813 99.0074 83.274 98.9643 83.2571L98.9857 83.3ZM70.7143 83.1H70.6428C70.1571 83 69.6643 82.8857 69.1714 82.7714C69.1253 82.7613 69.0817 82.7421 69.0431 82.7151C69.0045 82.688 68.9716 82.6535 68.9464 82.6137C68.9212 82.5739 68.9041 82.5294 68.8961 82.4829C68.8881 82.4364 68.8895 82.3888 68.9 82.3429C68.922 82.2511 68.9795 82.1719 69.0598 82.1223C69.1401 82.0728 69.2367 82.0571 69.3286 82.0786L70.7571 82.4071C70.8029 82.4164 70.8464 82.4348 70.8849 82.4612C70.9235 82.4875 70.9564 82.5213 70.9817 82.5606C71.007 82.5999 71.0242 82.6438 71.0322 82.6899C71.0403 82.7359 71.039 82.783 71.0286 82.8286C71.011 82.9009 70.9713 82.966 70.9149 83.0147C70.8586 83.0633 70.7884 83.0932 70.7143 83.1ZM55.9143 82.6357H55.8643C55.8175 82.6305 55.7722 82.6158 55.7312 82.5927C55.6902 82.5696 55.6543 82.5384 55.6256 82.501C55.5969 82.4637 55.5761 82.4209 55.5643 82.3754C55.5526 82.3298 55.5501 82.2823 55.5571 82.2357C55.6214 81.7429 55.7 81.2357 55.8 80.7286C55.8085 80.6821 55.8262 80.6379 55.8522 80.5985C55.8782 80.5592 55.9119 80.5254 55.9513 80.4994C55.9907 80.4734 56.0349 80.4556 56.0813 80.4471C56.1277 80.4386 56.1754 80.4396 56.2214 80.45C56.2676 80.4576 56.3116 80.4746 56.351 80.4998C56.3903 80.5251 56.4241 80.5582 56.4502 80.597C56.4763 80.6358 56.4941 80.6795 56.5027 80.7255C56.5113 80.7715 56.5103 80.8187 56.5 80.8643C56.4071 81.3571 56.3286 81.85 56.2643 82.2929C56.2609 82.3815 56.2246 82.4657 56.1626 82.5291C56.1005 82.5924 56.0171 82.6305 55.9286 82.6357H55.9143ZM67.7857 82.4286H67.7L66.2714 82.0643C66.1805 82.0391 66.1028 81.9796 66.0549 81.8984C66.0069 81.8171 65.9923 81.7204 66.0143 81.6286C66.0259 81.583 66.0465 81.5403 66.0747 81.5027C66.1029 81.4651 66.1383 81.4334 66.1787 81.4095C66.2192 81.3856 66.264 81.37 66.3106 81.3634C66.3571 81.3569 66.4045 81.3596 66.45 81.3714L67.8786 81.7357C67.9708 81.7594 68.0502 81.8182 68.0996 81.8997C68.149 81.9811 68.1645 82.0787 68.1428 82.1714C68.1212 82.2456 68.0761 82.3108 68.0143 82.3571C67.9525 82.4035 67.8773 82.4286 67.8 82.4286H67.7857ZM101.75 82.1643C101.655 82.1842 101.557 82.1656 101.475 82.1127C101.394 82.0598 101.338 81.9769 101.318 81.8821C101.298 81.7874 101.317 81.6887 101.369 81.6076C101.422 81.5266 101.505 81.4699 101.6 81.45C102.057 81.2429 102.5 81.0214 102.921 80.7929C102.963 80.7705 103.009 80.7566 103.056 80.7521C103.103 80.7475 103.15 80.7524 103.196 80.7663C103.241 80.7803 103.283 80.8031 103.319 80.8334C103.355 80.8637 103.385 80.9009 103.407 80.9429C103.429 80.984 103.443 81.0292 103.448 81.0757C103.452 81.1222 103.447 81.1692 103.433 81.2138C103.419 81.2584 103.396 81.2998 103.366 81.3354C103.336 81.3711 103.299 81.4003 103.257 81.4214C102.821 81.6571 102.371 81.8857 101.893 82.1357C101.851 82.1466 101.807 82.149 101.764 82.1429L101.75 82.1643ZM64.8714 81.6786H64.7786L63.35 81.2786C63.3031 81.2659 63.2591 81.2441 63.2207 81.2145C63.1822 81.1848 63.1499 81.1479 63.1257 81.1058C63.1015 81.0637 63.0858 81.0172 63.0796 80.969C63.0733 80.9208 63.0766 80.8719 63.0893 80.825C63.1019 80.7781 63.1237 80.7342 63.1534 80.6957C63.183 80.6572 63.2199 80.6249 63.2621 80.6007C63.3042 80.5765 63.3507 80.5608 63.3988 80.5546C63.447 80.5483 63.4959 80.5516 63.5428 80.5643C64.0286 80.7071 64.5143 80.8357 64.9714 80.9643C65.0661 80.9766 65.1521 81.026 65.2104 81.1017C65.2686 81.1774 65.2944 81.2731 65.2821 81.3679C65.2698 81.4626 65.2204 81.5485 65.1447 81.6068C65.069 81.6651 64.9733 81.6909 64.8786 81.6786H64.8714ZM62.0143 80.8571C61.9813 80.8637 61.9473 80.8637 61.9143 80.8571L60.4857 80.4286C60.3955 80.399 60.3205 80.3355 60.2765 80.2514C60.2324 80.1674 60.2229 80.0695 60.25 79.9786C60.278 79.889 60.3402 79.814 60.4231 79.7699C60.5059 79.7258 60.6029 79.716 60.6928 79.7429L62.1214 80.1714C62.2123 80.198 62.289 80.2595 62.3346 80.3426C62.3801 80.4256 62.3908 80.5234 62.3643 80.6143C62.34 80.6915 62.2897 80.7578 62.222 80.8021C62.1542 80.8464 62.0733 80.8658 61.9928 80.8571H62.0143ZM104.429 80.7429C104.352 80.7427 104.277 80.7176 104.215 80.6713C104.153 80.6251 104.108 80.5602 104.087 80.4863C104.065 80.4124 104.068 80.3335 104.095 80.2613C104.122 80.1891 104.171 80.1275 104.236 80.0857C104.657 79.8214 105.071 79.5429 105.464 79.2571C105.541 79.2013 105.637 79.1781 105.731 79.1929C105.824 79.2076 105.908 79.259 105.964 79.3357C106.02 79.4124 106.043 79.5082 106.029 79.602C106.014 79.6958 105.962 79.7798 105.886 79.8357C105.479 80.1286 105.05 80.4143 104.614 80.6857C104.551 80.7198 104.477 80.7299 104.407 80.7143L104.429 80.7429ZM59.1214 80H59.0071L57.5786 79.5357C57.5335 79.522 57.4916 79.4993 57.4555 79.469C57.4194 79.4387 57.3898 79.4014 57.3684 79.3594C57.3471 79.3174 57.3345 79.2715 57.3313 79.2244C57.3281 79.1774 57.3345 79.1302 57.35 79.0857C57.3794 78.9958 57.4433 78.9212 57.5277 78.8783C57.6121 78.8355 57.71 78.8278 57.8 78.8571L59.2286 79.3214C59.2728 79.3352 59.3139 79.3577 59.3494 79.3875C59.3849 79.4173 59.4142 79.4539 59.4355 79.4951C59.4567 79.5363 59.4696 79.5813 59.4733 79.6275C59.477 79.6737 59.4715 79.7202 59.4571 79.7643C59.4341 79.8345 59.3889 79.8954 59.3284 79.9379C59.2679 79.9804 59.1953 80.0021 59.1214 80ZM56.5 79.7H56.4286C56.3376 79.6748 56.26 79.6153 56.212 79.5341C56.164 79.4528 56.1495 79.3561 56.1714 79.2643C56.1914 79.2009 56.2081 79.1365 56.2214 79.0714H56.1643L54.7357 78.5857C54.6457 78.5544 54.5718 78.4887 54.5303 78.403C54.4888 78.3173 54.483 78.2185 54.5143 78.1286C54.5455 78.0386 54.6113 77.9647 54.697 77.9232C54.7827 77.8817 54.8814 77.8759 54.9714 77.9071L56.4 78.3929C56.4571 78.2 56.5143 78.0071 56.5786 77.8071C56.5926 77.7602 56.6158 77.7166 56.6467 77.6786C56.6777 77.6407 56.7158 77.6092 56.7589 77.586C56.802 77.5628 56.8493 77.5483 56.898 77.5433C56.9467 77.5384 56.9959 77.5431 57.0428 77.5571C57.0897 77.5712 57.1334 77.5944 57.1714 77.6253C57.2093 77.6563 57.2408 77.6944 57.264 77.7375C57.2872 77.7806 57.3017 77.8279 57.3067 77.8766C57.3116 77.9253 57.3069 77.9745 57.2928 78.0214C57.1357 78.5071 57 78.9786 56.8786 79.45C56.8514 79.5258 56.7989 79.59 56.7299 79.6316C56.661 79.6733 56.5798 79.6899 56.5 79.6786V79.7ZM106.836 78.9857C106.785 78.9853 106.734 78.9742 106.687 78.9533C106.641 78.9324 106.599 78.9021 106.564 78.8643C106.504 78.7909 106.474 78.6968 106.482 78.602C106.49 78.5072 106.535 78.4193 106.607 78.3571C106.979 78.0429 107.321 77.7071 107.7 77.3643C107.733 77.331 107.771 77.3046 107.814 77.2866C107.857 77.2685 107.903 77.2592 107.95 77.2592C107.997 77.2592 108.043 77.2685 108.086 77.2866C108.129 77.3046 108.167 77.331 108.2 77.3643C108.233 77.3975 108.26 77.437 108.278 77.4805C108.296 77.524 108.306 77.5707 108.306 77.6179C108.306 77.665 108.296 77.7117 108.278 77.7552C108.26 77.7987 108.233 77.8382 108.2 77.8714C107.836 78.2214 107.486 78.5857 107.064 78.9C107 78.9531 106.919 78.981 106.836 78.9786V78.9857ZM53.4214 78.0714C53.3813 78.0788 53.3401 78.0788 53.3 78.0714C52.8286 77.9 52.3571 77.7357 51.8714 77.5571C51.8268 77.542 51.7856 77.518 51.7505 77.4866C51.7153 77.4551 51.6869 77.4169 51.6669 77.3742C51.6469 77.3315 51.6357 77.2852 51.634 77.2381C51.6323 77.191 51.6402 77.144 51.6571 77.1C51.6894 77.011 51.7556 76.9384 51.8413 76.8982C51.9271 76.858 52.0252 76.8535 52.1143 76.8857L53.5428 77.4C53.632 77.4324 53.705 77.4982 53.7464 77.5836C53.7877 77.669 53.7941 77.7671 53.7643 77.8571C53.7329 77.9208 53.6839 77.9742 53.6232 78.0109C53.5624 78.0476 53.4924 78.0661 53.4214 78.0643V78.0714ZM50.5643 77.0357C50.5241 77.0431 50.483 77.0431 50.4428 77.0357L49.0143 76.5071C48.9273 76.4707 48.8579 76.4019 48.8206 76.3153C48.7833 76.2288 48.781 76.1311 48.8143 76.0429C48.8301 75.9988 48.8547 75.9584 48.8864 75.9241C48.9182 75.8897 48.9565 75.862 48.9991 75.8427C49.0417 75.8234 49.0878 75.8128 49.1345 75.8116C49.1813 75.8104 49.2279 75.8186 49.2714 75.8357L50.7 76.3643C50.7443 76.3809 50.7848 76.4062 50.8192 76.4386C50.8537 76.471 50.8813 76.5099 50.9006 76.5531C50.9199 76.5963 50.9304 76.6429 50.9315 76.6902C50.9326 76.7375 50.9243 76.7845 50.9071 76.8286C50.8782 76.8876 50.8336 76.9375 50.7781 76.9728C50.7227 77.0081 50.6586 77.0274 50.5928 77.0286L50.5643 77.0357ZM108.95 76.8857C108.864 76.8853 108.781 76.855 108.714 76.8C108.643 76.7368 108.6 76.6484 108.593 76.5537C108.587 76.459 108.617 76.3654 108.679 76.2929C109.007 75.9256 109.317 75.5417 109.607 75.1429C109.665 75.0686 109.75 75.0197 109.843 75.0064C109.936 74.9931 110.031 75.0164 110.107 75.0714C110.183 75.1283 110.233 75.2129 110.246 75.3066C110.26 75.4004 110.235 75.4956 110.179 75.5714C109.879 75.9786 109.557 76.3786 109.221 76.7643C109.158 76.8313 109.071 76.8721 108.979 76.8786L108.95 76.8857ZM57.3857 76.8214C57.3386 76.8315 57.2899 76.8315 57.2428 76.8214C57.1996 76.8028 57.1605 76.7758 57.1277 76.742C57.0949 76.7081 57.0692 76.6682 57.0519 76.6243C57.0346 76.5805 57.0262 76.5337 57.0271 76.4867C57.028 76.4396 57.0382 76.3931 57.0571 76.35C57.1714 76.0786 57.3786 75.6357 57.6928 74.9214C57.7345 74.8362 57.8084 74.771 57.8981 74.7402C57.9879 74.7094 58.0862 74.7155 58.1714 74.7571C58.2567 74.7988 58.3219 74.8727 58.3527 74.9624C58.3835 75.0522 58.3774 75.1505 58.3357 75.2357C58.0286 75.8571 57.8214 76.3286 57.7143 76.5929C57.6889 76.6534 57.6476 76.7059 57.5947 76.7449C57.5419 76.7838 57.4796 76.8078 57.4143 76.8143L57.3857 76.8214ZM47.7571 75.9643C47.7145 75.9711 47.6711 75.9711 47.6286 75.9643L46.2 75.4071C46.1563 75.3898 46.1165 75.3641 46.0829 75.3314C46.0492 75.2986 46.0223 75.2596 46.0037 75.2165C45.9851 75.1733 45.9752 75.127 45.9746 75.08C45.974 75.0331 45.9826 74.9865 46 74.9429C46.0365 74.8559 46.1052 74.7865 46.1918 74.7492C46.2784 74.7119 46.376 74.7096 46.4643 74.7429C46.9286 74.9357 47.3928 75.1143 47.8928 75.3C47.9806 75.3336 48.0515 75.4005 48.0903 75.4861C48.129 75.5716 48.1325 75.669 48.1 75.7571C48.0704 75.8157 48.0257 75.8652 47.9703 75.9004C47.915 75.9356 47.8512 75.9552 47.7857 75.9571L47.7571 75.9643ZM45 74.8429C44.955 74.8497 44.9093 74.8497 44.8643 74.8429L43.4714 74.2714C43.4275 74.2535 43.3877 74.2269 43.3542 74.1934C43.3206 74.1599 43.2941 74.12 43.2762 74.0761C43.2582 74.0323 43.2492 73.9852 43.2496 73.9378C43.25 73.8904 43.2598 73.8436 43.2786 73.8C43.3163 73.7144 43.3857 73.6466 43.4721 73.6106C43.5585 73.5747 43.6555 73.5735 43.7428 73.6071L45.1714 74.1786C45.215 74.1958 45.2548 74.2216 45.2882 74.2545C45.3217 74.2873 45.3482 74.3266 45.3662 74.3699C45.3841 74.4132 45.3933 74.4597 45.3929 74.5066C45.3926 74.5534 45.3829 74.5998 45.3643 74.6429C45.332 74.71 45.2795 74.7654 45.2142 74.8013C45.1489 74.8372 45.074 74.8517 45 74.8429ZM110.779 74.4643C110.711 74.4648 110.645 74.4476 110.586 74.4143C110.506 74.363 110.45 74.2824 110.43 74.19C110.41 74.0976 110.428 74.001 110.479 73.9214C110.736 73.5071 110.986 73.0714 111.193 72.6429C111.236 72.5587 111.31 72.495 111.4 72.4655C111.489 72.4361 111.587 72.4434 111.671 72.4857C111.756 72.5299 111.82 72.6056 111.849 72.6964C111.879 72.7873 111.871 72.886 111.829 72.9714C111.593 73.4214 111.336 73.8643 111.064 74.3C111.034 74.3502 110.991 74.3917 110.939 74.4204C110.888 74.4492 110.83 74.4643 110.771 74.4643H110.779ZM58.7357 74.1C58.6781 74.1003 58.6215 74.0856 58.5714 74.0571C58.5295 74.0353 58.4922 74.0054 58.4619 73.9691C58.4316 73.9328 58.4088 73.8908 58.3949 73.8456C58.3809 73.8005 58.3761 73.7529 58.3807 73.7059C58.3852 73.6588 58.3991 73.6131 58.4214 73.5714C58.6428 73.1643 58.8928 72.7214 59.1357 72.25C59.1877 72.1785 59.2644 72.1288 59.3509 72.1106C59.4374 72.0924 59.5276 72.1069 59.604 72.1513C59.6805 72.1957 59.7377 72.267 59.7647 72.3512C59.7916 72.4354 59.7864 72.5266 59.75 72.6071C59.4786 73.0714 59.2357 73.5071 59.0357 73.9143C59.0049 73.9691 58.9604 74.0151 58.9066 74.0476C58.8528 74.0801 58.7914 74.0982 58.7286 74.1H58.7357ZM42.2214 73.6929C42.1743 73.7029 42.1256 73.7029 42.0786 73.6929L40.7143 73.0786C40.6271 73.0407 40.5586 72.9697 40.5238 72.8813C40.489 72.7929 40.4907 72.6943 40.5286 72.6071C40.5664 72.52 40.6374 72.4515 40.7258 72.4166C40.8142 72.3818 40.9128 72.3835 41 72.4214L42.3786 73.0071C42.4255 73.0161 42.4701 73.0341 42.5101 73.0603C42.55 73.0865 42.5844 73.1203 42.6112 73.1597C42.6381 73.1992 42.6569 73.2436 42.6666 73.2903C42.6763 73.337 42.6768 73.3852 42.6678 73.4321C42.6589 73.479 42.6409 73.5237 42.6147 73.5637C42.5885 73.6036 42.5547 73.6379 42.5153 73.6648C42.4758 73.6917 42.4314 73.7105 42.3847 73.7202C42.3379 73.7299 42.2897 73.7303 42.2428 73.7214L42.2214 73.6929ZM39.4857 72.45C39.4083 72.4505 39.333 72.4254 39.2714 72.3786C39.0286 72.1929 38.6143 71.8714 38.0786 71.4214C38.0424 71.3918 38.0125 71.3552 37.9906 71.3138C37.9688 71.2724 37.9555 71.2271 37.9515 71.1805C37.9475 71.1339 37.9529 71.0869 37.9674 71.0424C37.9818 70.9979 38.0051 70.9568 38.0357 70.9214C38.0957 70.8489 38.1818 70.803 38.2754 70.7936C38.369 70.7843 38.4626 70.8122 38.5357 70.8714C39.0643 71.3143 39.4714 71.6286 39.7071 71.8071C39.7818 71.865 39.8305 71.9501 39.8425 72.0439C39.8546 72.1376 39.829 72.2323 39.7714 72.3071C39.737 72.3521 39.6927 72.3883 39.6418 72.4131C39.591 72.4379 39.5351 72.4506 39.4786 72.45H39.4857ZM112.143 71.8C112.098 71.806 112.052 71.806 112.007 71.8C111.921 71.7608 111.853 71.6902 111.817 71.6025C111.781 71.5149 111.78 71.4169 111.814 71.3286C112.007 70.8714 112.179 70.4071 112.321 69.95C112.35 69.8553 112.415 69.7757 112.502 69.7288C112.589 69.682 112.691 69.6716 112.786 69.7C112.88 69.7284 112.96 69.7933 113.007 69.8804C113.054 69.9674 113.064 70.0696 113.036 70.1643C112.879 70.6429 112.7 71.1286 112.507 71.5929C112.475 71.6607 112.423 71.717 112.358 71.754C112.293 71.7911 112.217 71.8072 112.143 71.8ZM60.25 71.5C60.1814 71.5011 60.1141 71.4812 60.0571 71.4429C59.9777 71.3916 59.9218 71.311 59.9017 71.2186C59.8816 71.1262 59.899 71.0296 59.95 70.95C60.2071 70.5452 60.4857 70.1238 60.7857 69.6857C60.8122 69.6465 60.8463 69.613 60.8858 69.5871C60.9254 69.5612 60.9698 69.5434 61.0163 69.5347C61.0628 69.5261 61.1106 69.5268 61.1568 69.5368C61.2031 69.5467 61.2469 69.5658 61.2857 69.5929C61.3614 69.6475 61.4132 69.7291 61.4304 69.8208C61.4477 69.9125 61.4291 70.0073 61.3786 70.0857C61.0857 70.5143 60.8071 70.9286 60.55 71.3357C60.5194 71.3859 60.4763 71.4274 60.425 71.4562C60.3738 71.4849 60.3159 71.5 60.2571 71.5H60.25ZM37.1428 70.5214C37.0556 70.5203 36.9717 70.4873 36.9071 70.4286C36.5571 70.1214 36.1928 69.7786 35.7857 69.4071C35.7198 69.3392 35.683 69.2482 35.683 69.1536C35.683 69.0589 35.7198 68.968 35.7857 68.9C35.8189 68.8665 35.8584 68.84 35.9019 68.8218C35.9454 68.8037 35.9921 68.7944 36.0393 68.7944C36.0864 68.7944 36.1331 68.8037 36.1766 68.8218C36.2201 68.84 36.2596 68.8665 36.2928 68.9C36.6857 69.2643 37.05 69.6143 37.4 69.9071C37.4562 69.9552 37.4962 70.0195 37.5143 70.0912C37.5324 70.1629 37.5279 70.2385 37.5012 70.3075C37.4746 70.3764 37.4271 70.4355 37.3655 70.4763C37.3039 70.5172 37.2311 70.538 37.1571 70.5357L37.1428 70.5214ZM61.95 69.0143C61.8737 69.0149 61.799 68.9925 61.7357 68.95C61.6604 68.8931 61.6101 68.8091 61.5954 68.7159C61.5807 68.6226 61.6029 68.5273 61.6571 68.45C61.95 68.05 62.2571 67.65 62.5786 67.2429C62.6078 67.2054 62.6442 67.1741 62.6857 67.1509C62.7272 67.1277 62.7729 67.113 62.8201 67.1077C62.8673 67.1024 62.9152 67.1065 62.9608 67.1199C63.0064 67.1333 63.0489 67.1557 63.0857 67.1857C63.1593 67.2446 63.2066 67.3303 63.2173 67.4239C63.228 67.5176 63.2012 67.6117 63.1428 67.6857C62.8214 68.0857 62.5214 68.4786 62.2357 68.8714C62.2036 68.9135 62.1626 68.9481 62.1158 68.9728C62.0689 68.9975 62.0172 69.0116 61.9643 69.0143H61.95ZM113.036 68.9214H112.964C112.918 68.9121 112.875 68.8937 112.836 68.8675C112.797 68.8412 112.764 68.8076 112.738 68.7684C112.712 68.7293 112.694 68.6854 112.685 68.6394C112.676 68.5933 112.676 68.546 112.686 68.5C112.736 68.2429 112.757 68.0929 112.757 68.0857V67.7786C112.757 67.5429 112.757 67.3143 112.757 67.0643C112.754 67.0174 112.761 66.9703 112.776 66.9259C112.791 66.8814 112.815 66.8405 112.846 66.8053C112.878 66.7701 112.915 66.7415 112.958 66.7209C113 66.7004 113.046 66.6884 113.093 66.6857C113.14 66.6818 113.187 66.6875 113.232 66.7025C113.277 66.7174 113.318 66.7413 113.354 66.7727C113.389 66.804 113.418 66.8423 113.438 66.885C113.458 66.9278 113.47 66.9742 113.471 67.0214C113.471 67.2643 113.471 67.5071 113.471 67.7357V68.0929C113.471 68.1286 113.471 68.2929 113.386 68.6C113.379 68.6854 113.341 68.7652 113.279 68.8245C113.217 68.8837 113.136 68.9182 113.05 68.9214H113.036ZM35 68.4571C34.9058 68.4558 34.8159 68.4173 34.75 68.35C34.4071 68.0071 34.0357 67.6357 33.6928 67.2643C33.6563 67.2314 33.627 67.1914 33.6066 67.1467C33.5862 67.102 33.5753 67.0535 33.5746 67.0044C33.5738 66.9553 33.5831 66.9065 33.6021 66.8612C33.621 66.8158 33.6491 66.7749 33.6845 66.7409C33.72 66.7069 33.7621 66.6806 33.8082 66.6636C33.8543 66.6466 33.9035 66.6393 33.9525 66.6422C34.0015 66.6451 34.0495 66.658 34.0933 66.6803C34.1371 66.7025 34.1759 66.7335 34.2071 66.7714C34.5643 67.1524 34.9143 67.5095 35.2571 67.8429C35.323 67.9108 35.3599 68.0018 35.3599 68.0964C35.3599 68.1911 35.323 68.282 35.2571 68.35C35.189 68.4184 35.0965 68.4569 35 68.4571ZM63.8643 66.6571C63.7948 66.6608 63.7258 66.6441 63.6657 66.6092C63.6057 66.5742 63.5571 66.5224 63.526 66.4602C63.4949 66.398 63.4826 66.3281 63.4907 66.259C63.4988 66.19 63.5268 66.1248 63.5714 66.0714C63.8928 65.6929 64.2286 65.3071 64.5786 64.9286C64.6111 64.8953 64.65 64.8689 64.693 64.8509C64.7359 64.8328 64.782 64.8235 64.8286 64.8235C64.8751 64.8235 64.9212 64.8328 64.9641 64.8509C65.0071 64.8689 65.046 64.8953 65.0786 64.9286C65.112 64.9618 65.1386 65.0013 65.1567 65.0448C65.1749 65.0883 65.1842 65.135 65.1842 65.1821C65.1842 65.2293 65.1749 65.276 65.1567 65.3195C65.1386 65.363 65.112 65.4025 65.0786 65.4357C64.7357 65.8071 64.4071 66.15 64.0857 66.55C64.0525 66.5845 64.0125 66.6118 63.9682 66.6303C63.924 66.6487 63.8765 66.6578 63.8286 66.6571H63.8643ZM32.9286 66.2643C32.879 66.2646 32.8299 66.2546 32.7844 66.235C32.7389 66.2153 32.698 66.1863 32.6643 66.15C32.3357 65.7786 32 65.4357 31.6714 65C31.6408 64.9646 31.6176 64.9235 31.6031 64.879C31.5886 64.8345 31.5832 64.7876 31.5872 64.7409C31.5912 64.6943 31.6045 64.649 31.6264 64.6076C31.6482 64.5662 31.6781 64.5296 31.7143 64.5C31.7877 64.4395 31.8818 64.4102 31.9766 64.4182C32.0713 64.4262 32.1592 64.4709 32.2214 64.5429C32.5428 64.9357 32.8714 65.3071 33.2 65.6714C33.2659 65.7394 33.3027 65.8303 33.3027 65.925C33.3027 66.0197 33.2659 66.1106 33.2 66.1786C33.1579 66.2139 33.1087 66.2399 33.0557 66.2547C33.0027 66.2694 32.9472 66.2727 32.8928 66.2643H32.9286ZM112.979 65.9286C112.895 65.9297 112.813 65.9008 112.749 65.847C112.685 65.7933 112.642 65.7183 112.629 65.6357C112.547 65.1529 112.435 64.6758 112.293 64.2071C112.266 64.1162 112.275 64.0183 112.319 63.9343C112.363 63.8502 112.438 63.7867 112.529 63.7571C112.619 63.7303 112.715 63.74 112.798 63.7841C112.881 63.8283 112.943 63.9032 112.971 63.9929C113.121 64.4879 113.243 64.9911 113.336 65.5C113.35 65.5927 113.328 65.6874 113.273 65.7636C113.218 65.8398 113.135 65.8914 113.043 65.9071L112.979 65.9286ZM65.8643 64.4357C65.7938 64.4361 65.7247 64.4157 65.6658 64.3769C65.6069 64.3381 65.5608 64.2828 65.5333 64.2179C65.5058 64.1529 65.4981 64.0813 65.5113 64.012C65.5244 63.9428 65.5578 63.8789 65.6071 63.8286C65.9571 63.4714 66.3214 63.1143 66.6928 62.7714C66.726 62.738 66.7655 62.7114 66.8091 62.6933C66.8526 62.6751 66.8993 62.6658 66.9464 62.6658C66.9936 62.6658 67.0402 62.6751 67.0838 62.6933C67.1273 62.7114 67.1668 62.738 67.2 62.7714C67.2342 62.8035 67.2614 62.8422 67.28 62.8852C67.2986 62.9282 67.3082 62.9746 67.3082 63.0214C67.3082 63.0683 67.2986 63.1146 67.28 63.1576C67.2614 63.2006 67.2342 63.2394 67.2 63.2714C66.8357 63.6214 66.4857 63.9857 66.1357 64.3143C66.1021 64.3532 66.0604 64.3843 66.0135 64.4053C65.9666 64.4262 65.9157 64.4366 65.8643 64.4357ZM30.9643 63.9571C30.9094 63.958 30.8551 63.9462 30.8056 63.9226C30.756 63.8991 30.7126 63.8645 30.6786 63.8214C30.3714 63.4286 30.0643 63.0286 29.7643 62.6143C29.7084 62.5376 29.6853 62.4418 29.7 62.348C29.7147 62.2542 29.7661 62.1702 29.8428 62.1143C29.9196 62.0584 30.0153 62.0353 30.1091 62.05C30.2029 62.0648 30.287 62.1161 30.3428 62.1929C30.6357 62.6 30.9357 62.9929 31.2428 63.3857C31.3004 63.4606 31.326 63.5553 31.314 63.649C31.3019 63.7427 31.2532 63.8278 31.1786 63.8857C31.117 63.9326 31.0416 63.9577 30.9643 63.9571ZM112.064 63.0643C111.996 63.0647 111.93 63.0453 111.873 63.0085C111.816 62.9717 111.771 62.9191 111.743 62.8571C111.53 62.4125 111.292 61.9808 111.029 61.5643C110.979 61.4828 110.964 61.3851 110.987 61.2927C111.01 61.2003 111.069 61.1207 111.15 61.0714C111.231 61.0222 111.329 61.0073 111.422 61.0301C111.514 61.0528 111.594 61.1114 111.643 61.1929C111.91 61.6341 112.149 62.0922 112.357 62.5643C112.396 62.6505 112.399 62.7485 112.365 62.8369C112.332 62.9252 112.265 62.9967 112.179 63.0357C112.142 63.0513 112.104 63.0609 112.064 63.0643ZM68.05 62.35C67.999 62.3506 67.9485 62.3392 67.9027 62.3169C67.8568 62.2946 67.8167 62.2619 67.7857 62.2214C67.7524 62.1888 67.726 62.1499 67.708 62.107C67.6899 62.0641 67.6806 62.018 67.6806 61.9714C67.6806 61.9249 67.6899 61.8788 67.708 61.8358C67.726 61.7929 67.7524 61.754 67.7857 61.7214C68.1643 61.3929 68.5571 61.0643 68.95 60.7429C69.0258 60.6858 69.1206 60.6599 69.2149 60.6705C69.3092 60.6812 69.3959 60.7275 69.4571 60.8C69.487 60.8363 69.5092 60.8782 69.5225 60.9232C69.5358 60.9682 69.5399 61.0155 69.5346 61.0621C69.5293 61.1088 69.5146 61.1539 69.4915 61.1947C69.4683 61.2356 69.4372 61.2714 69.4 61.3C69.0071 61.6143 68.6286 61.9357 68.2571 62.2571C68.2059 62.3223 68.1319 62.3657 68.05 62.3786V62.35ZM29.1857 61.5286C29.1277 61.5287 29.0705 61.5144 29.0194 61.487C28.9683 61.4595 28.9248 61.4198 28.8928 61.3714C28.6143 60.9571 28.3357 60.5286 28.0643 60.0929C28.0398 60.0531 28.0235 60.0089 28.0164 59.9628C28.0093 59.9167 28.0114 59.8697 28.0227 59.8244C28.0341 59.7792 28.0543 59.7367 28.0823 59.6993C28.1103 59.662 28.1454 59.6307 28.1857 59.6071C28.2247 59.5814 28.2685 59.5639 28.3145 59.5557C28.3605 59.5475 28.4077 59.5488 28.4532 59.5595C28.4987 59.5702 28.5415 59.5901 28.579 59.6179C28.6166 59.6458 28.648 59.681 28.6714 59.7214C28.9357 60.1429 29.2071 60.5643 29.4857 60.9714C29.5374 61.0502 29.5559 61.1461 29.5372 61.2384C29.5184 61.3307 29.464 61.4119 29.3857 61.4643C29.3276 61.5066 29.2575 61.5291 29.1857 61.5286ZM110.514 60.5C110.459 60.5008 110.405 60.489 110.356 60.4655C110.306 60.442 110.263 60.4073 110.229 60.3643C109.933 59.9887 109.618 59.6286 109.286 59.2857C109.252 59.2525 109.226 59.213 109.208 59.1695C109.189 59.126 109.18 59.0793 109.18 59.0321C109.18 58.985 109.189 58.9383 109.208 58.8948C109.226 58.8513 109.252 58.8118 109.286 58.7786C109.354 58.7127 109.445 58.6758 109.539 58.6758C109.634 58.6758 109.725 58.7127 109.793 58.7786C110.15 59.1479 110.486 59.5366 110.8 59.9429C110.858 60.0178 110.883 60.1124 110.871 60.2061C110.859 60.2998 110.81 60.385 110.736 60.4429C110.67 60.4862 110.592 60.5063 110.514 60.5ZM70.4 60.5C70.3434 60.5006 70.2875 60.4879 70.2367 60.4631C70.1859 60.4383 70.1415 60.4021 70.1071 60.3571C70.0529 60.2799 70.0307 60.1845 70.0454 60.0913C70.0601 59.998 70.1104 59.9141 70.1857 59.8571C70.5857 59.5571 71 59.2643 71.4214 58.9786C71.4602 58.9515 71.504 58.9324 71.5503 58.9225C71.5965 58.9125 71.6443 58.9118 71.6908 58.9204C71.7374 58.9291 71.7817 58.9469 71.8213 58.9728C71.8609 58.9987 71.8949 59.0322 71.9214 59.0714C71.9735 59.1513 71.9922 59.2484 71.9735 59.3418C71.9548 59.4353 71.9002 59.5177 71.8214 59.5714C71.4071 59.85 71 60.1357 70.6071 60.4286C70.5473 60.4728 70.4743 60.4955 70.4 60.4929V60.5ZM27.6071 58.9643C27.5436 58.9652 27.481 58.9491 27.4257 58.9177C27.3705 58.8863 27.3246 58.8407 27.2928 58.7857C27.05 58.3429 26.8071 57.9 26.5786 57.4429C26.5578 57.4007 26.5456 57.3548 26.5427 57.3079C26.5397 57.261 26.5461 57.2139 26.5613 57.1695C26.5766 57.125 26.6005 57.084 26.6316 57.0488C26.6628 57.0136 26.7006 56.9849 26.7428 56.9643C26.7844 56.9423 26.83 56.929 26.8768 56.925C26.9237 56.921 26.9708 56.9266 27.0155 56.9412C27.0602 56.9559 27.1014 56.9794 27.1368 57.0104C27.1722 57.0413 27.201 57.0791 27.2214 57.1214C27.4428 57.5643 27.6786 58.0071 27.9357 58.4357C27.9596 58.4763 27.975 58.5213 27.9811 58.568C27.9872 58.6147 27.9838 58.6621 27.9712 58.7074C27.9585 58.7528 27.9368 58.7951 27.9074 58.8319C27.878 58.8687 27.8414 58.8991 27.8 58.9214C27.741 58.9536 27.6742 58.9684 27.6071 58.9643ZM72.8571 58.8071C72.7958 58.8062 72.7356 58.79 72.682 58.7601C72.6284 58.7302 72.583 58.6874 72.55 58.6357C72.5021 58.5539 72.4881 58.4567 72.5107 58.3647C72.5334 58.2726 72.591 58.1931 72.6714 58.1429C73.0952 57.8762 73.5309 57.619 73.9786 57.3714C74.0198 57.3484 74.0652 57.3338 74.1121 57.3284C74.1591 57.3229 74.2066 57.3268 74.252 57.3397C74.2975 57.3527 74.3399 57.3744 74.3769 57.4038C74.414 57.4331 74.4449 57.4694 74.4678 57.5107C74.4908 57.552 74.5055 57.5974 74.5109 57.6443C74.5163 57.6912 74.5125 57.7388 74.4995 57.7842C74.4866 57.8296 74.4648 57.8721 74.4355 57.9091C74.4062 57.9461 74.3698 57.977 74.3286 58C73.8857 58.2429 73.4643 58.4929 73.0428 58.7143C72.9915 58.7629 72.9269 58.7953 72.8571 58.8071ZM108.4 58.3357C108.316 58.3355 108.235 58.3051 108.171 58.25C107.807 57.9429 107.457 57.6357 107.007 57.3429C106.932 57.2859 106.881 57.202 106.867 57.1087C106.852 57.0155 106.874 56.9201 106.929 56.8429C106.956 56.804 106.99 56.771 107.03 56.7459C107.07 56.7207 107.115 56.704 107.162 56.6967C107.208 56.6893 107.256 56.6915 107.302 56.7031C107.348 56.7148 107.391 56.7356 107.429 56.7643C107.85 57.0643 108.257 57.3857 108.636 57.7071C108.707 57.7703 108.75 57.8587 108.757 57.9535C108.763 58.0482 108.733 58.1418 108.671 58.2143C108.609 58.284 108.522 58.3273 108.429 58.3357H108.4ZM75.4786 57.3357C75.4125 57.3357 75.3478 57.3178 75.2911 57.2838C75.2345 57.2498 75.1882 57.2011 75.1571 57.1429C75.1364 57.1007 75.1242 57.0548 75.1213 57.0079C75.1183 56.961 75.1246 56.9139 75.1399 56.8695C75.1552 56.825 75.1791 56.784 75.2102 56.7488C75.2414 56.7136 75.2791 56.6849 75.3214 56.6643C75.7643 56.4357 76.2214 56.2214 76.6857 56.0071C76.7719 55.9685 76.8699 55.9656 76.9583 55.9991C77.0467 56.0325 77.1181 56.0996 77.1571 56.1857C77.1773 56.2283 77.1886 56.2744 77.1905 56.3214C77.1924 56.3685 77.1847 56.4154 77.1681 56.4594C77.1514 56.5034 77.126 56.5436 77.0935 56.5776C77.0609 56.6116 77.0218 56.6386 76.9786 56.6571C76.5286 56.8643 76.0786 57.0786 75.6428 57.3C75.6006 57.3211 75.5543 57.3333 75.5071 57.3357H75.4786ZM105.964 56.5786C105.899 56.58 105.834 56.5626 105.779 56.5286C105.364 56.2714 104.929 56.0286 104.486 55.8143C104.402 55.7715 104.338 55.6971 104.308 55.6074C104.279 55.5177 104.286 55.4201 104.329 55.3357C104.374 55.2524 104.45 55.1897 104.54 55.1605C104.63 55.1312 104.729 55.1377 104.814 55.1786C105.271 55.4143 105.721 55.6714 106.15 55.8929C106.23 55.9431 106.288 56.0226 106.311 56.1147C106.333 56.2067 106.319 56.3039 106.271 56.3857C106.244 56.4377 106.204 56.4822 106.155 56.5158C106.107 56.5493 106.051 56.5708 105.993 56.5786H105.964ZM26.2571 56.2786C26.1876 56.2779 26.1198 56.2574 26.0615 56.2194C26.0033 56.1815 25.9572 56.1276 25.9286 56.0643C25.7286 55.6071 25.5357 55.1357 25.3571 54.6357C25.336 54.5913 25.3243 54.5431 25.3228 54.494C25.3212 54.4449 25.3297 54.396 25.3479 54.3503C25.3661 54.3047 25.3935 54.2633 25.4284 54.2287C25.4633 54.1941 25.505 54.1671 25.5508 54.1494C25.5966 54.1316 25.6456 54.1236 25.6947 54.1256C25.7438 54.1277 25.7919 54.1398 25.8361 54.1613C25.8802 54.1829 25.9195 54.2133 25.9514 54.2506C25.9833 54.288 26.0071 54.3316 26.0214 54.3786C26.2 54.8429 26.3857 55.3 26.5857 55.75C26.6046 55.7931 26.6148 55.8396 26.6157 55.8867C26.6166 55.9337 26.6082 55.9805 26.5909 56.0244C26.5737 56.0682 26.5479 56.1081 26.5151 56.142C26.4824 56.1758 26.4432 56.2028 26.4 56.2214C26.3577 56.2518 26.3087 56.2714 26.2571 56.2786ZM78.2428 56.1C78.1726 56.0987 78.1041 56.0772 78.0458 56.0379C77.9875 55.9986 77.9418 55.9433 77.9143 55.8786C77.8969 55.835 77.8883 55.7883 77.8889 55.7414C77.8895 55.6944 77.8994 55.6481 77.918 55.605C77.9366 55.5618 77.9635 55.5228 77.9971 55.4901C78.0308 55.4574 78.0706 55.4316 78.1143 55.4143C78.5786 55.2286 79.05 55.05 79.5428 54.8786C79.6376 54.8473 79.7408 54.855 79.8299 54.8998C79.919 54.9447 79.9866 55.0231 80.0178 55.1179C80.0491 55.2126 80.0415 55.3158 79.9966 55.4049C79.9517 55.494 79.8733 55.5616 79.7786 55.5929C79.3071 55.7571 78.8428 55.9286 78.35 56.1143C78.3138 56.1142 78.2778 56.1094 78.2428 56.1ZM103.314 55.2071C103.267 55.2139 103.219 55.2139 103.171 55.2071C102.379 54.8643 101.864 54.7143 101.857 54.7071C101.765 54.6819 101.687 54.6231 101.636 54.5423C101.586 54.4616 101.568 54.3649 101.586 54.2714C101.591 54.2277 101.606 54.1857 101.629 54.1481C101.653 54.1105 101.683 54.0782 101.72 54.0533C101.756 54.0284 101.797 54.0114 101.841 54.0034C101.884 53.9955 101.929 53.9967 101.971 54.0071H102.036C102.522 54.1549 102.999 54.3314 103.464 54.5357C103.508 54.5529 103.548 54.5787 103.581 54.6116C103.615 54.6445 103.641 54.6837 103.659 54.727C103.677 54.7703 103.686 54.8168 103.686 54.8637C103.685 54.9106 103.676 54.9569 103.657 55C103.626 55.0643 103.578 55.1181 103.517 55.1549C103.456 55.1917 103.385 55.2099 103.314 55.2071ZM81.0786 55.1071C80.9838 55.1204 80.8877 55.0955 80.8114 55.0379C80.735 54.9803 80.6847 54.8947 80.6714 54.8C80.6582 54.7053 80.6831 54.6092 80.7407 54.5328C80.7983 54.4565 80.8838 54.4061 80.9786 54.3929C81.4571 54.2429 81.9428 54.1071 82.4071 53.9857C82.5019 53.963 82.6017 53.9788 82.6848 54.0297C82.7678 54.0806 82.8273 54.1624 82.85 54.2571C82.8727 54.3519 82.8569 54.4517 82.806 54.5348C82.7551 54.6178 82.6733 54.6773 82.5786 54.7C82.0928 54.8286 81.6214 54.9571 81.15 55.1C81.1266 55.1055 81.1026 55.1079 81.0786 55.1071ZM100.421 54.3929H100.357C99.8571 54.3 99.3714 54.2143 98.8857 54.1429C98.8392 54.1359 98.7946 54.1198 98.7544 54.0956C98.7141 54.0713 98.6791 54.0394 98.6512 54.0015C98.6234 53.9637 98.6032 53.9208 98.592 53.8752C98.5807 53.8295 98.5786 53.7822 98.5857 53.7357C98.5927 53.6893 98.6088 53.6446 98.633 53.6044C98.6573 53.5642 98.6892 53.5291 98.727 53.5012C98.7648 53.4734 98.8078 53.4532 98.8534 53.442C98.899 53.4308 98.9464 53.4286 98.9928 53.4357L100.486 53.6929C100.533 53.6971 100.578 53.7105 100.62 53.7323C100.662 53.7542 100.699 53.784 100.729 53.8202C100.759 53.8563 100.782 53.8981 100.796 53.943C100.81 53.988 100.815 54.0352 100.811 54.0821C100.806 54.129 100.793 54.1747 100.771 54.2164C100.749 54.2581 100.72 54.2951 100.683 54.3253C100.647 54.3554 100.605 54.3782 100.561 54.3923C100.516 54.4063 100.468 54.4114 100.421 54.4071V54.3929ZM83.9928 54.3929C83.9115 54.3932 83.8325 54.3658 83.7688 54.3152C83.7052 54.2645 83.6607 54.1936 83.6428 54.1143C83.6237 54.0206 83.6422 53.9231 83.6943 53.8429C83.7465 53.7628 83.828 53.7063 83.9214 53.6857C84.4071 53.5857 84.9071 53.4929 85.4071 53.4071C85.5007 53.3925 85.5963 53.4149 85.6736 53.4696C85.751 53.5243 85.804 53.6069 85.8214 53.7C85.836 53.7936 85.8136 53.8892 85.759 53.9665C85.7043 54.0438 85.6216 54.0968 85.5286 54.1143C85.0357 54.1929 84.5428 54.2857 84.1 54.3857L83.9928 54.3929ZM97.45 53.95H97.4071C96.9071 53.8929 96.4143 53.8357 95.9214 53.7929C95.8267 53.7843 95.7392 53.7385 95.6783 53.6655C95.6173 53.5925 95.5879 53.4983 95.5964 53.4036C95.6049 53.3089 95.6507 53.2214 95.7237 53.1604C95.7967 53.0995 95.891 53.07 95.9857 53.0786C96.4857 53.1286 96.9857 53.1786 97.4929 53.2429C97.5876 53.2485 97.6761 53.2916 97.7391 53.3626C97.8021 53.4336 97.8342 53.5267 97.8286 53.6214C97.8229 53.7161 97.7798 53.8047 97.7088 53.8677C97.6378 53.9306 97.5447 53.9628 97.45 53.9571V53.95ZM86.9571 53.9C86.9102 53.9033 86.8631 53.8973 86.8186 53.8824C86.774 53.8675 86.7328 53.8439 86.6973 53.8131C86.6256 53.7508 86.5816 53.6626 86.575 53.5679C86.5684 53.4731 86.5996 53.3797 86.6619 53.308C86.7242 53.2363 86.8124 53.1923 86.9071 53.1857C87.4071 53.1214 87.9071 53.0714 88.4214 53.0286C88.5147 53.0224 88.6067 53.0524 88.6785 53.1122C88.7503 53.172 88.7963 53.2572 88.8071 53.35C88.811 53.3969 88.8056 53.4442 88.7912 53.489C88.7768 53.5338 88.7536 53.5754 88.7231 53.6112C88.6926 53.6471 88.6552 53.6765 88.6133 53.6979C88.5713 53.7193 88.5255 53.7321 88.4786 53.7357C87.9786 53.7786 87.4857 53.8357 87 53.8929L86.9571 53.9ZM94.4571 53.6714L92.9428 53.5714C92.8481 53.5714 92.7573 53.5338 92.6903 53.4668C92.6233 53.3998 92.5857 53.309 92.5857 53.2143C92.5857 53.1196 92.6233 53.0287 92.6903 52.9617C92.7573 52.8948 92.8481 52.8571 92.9428 52.8571L94.4571 52.9214C94.5519 52.9214 94.6427 52.9591 94.7097 53.026C94.7766 53.093 94.8143 53.1838 94.8143 53.2786C94.8143 53.3733 94.7766 53.4641 94.7097 53.5311C94.6427 53.5981 94.5519 53.6357 94.4571 53.6357V53.6714ZM89.95 53.6714C89.8553 53.6714 89.7644 53.6338 89.6974 53.5668C89.6305 53.4998 89.5928 53.409 89.5928 53.3143C89.5928 53.2196 89.6305 53.1287 89.6974 53.0617C89.7644 52.9948 89.8553 52.9571 89.95 52.9571C90.45 52.9571 90.9571 52.9143 91.4643 52.9071C91.559 52.9071 91.6498 52.9448 91.7168 53.0117C91.7838 53.0787 91.8214 53.1696 91.8214 53.2643C91.8214 53.359 91.7838 53.4498 91.7168 53.5168C91.6498 53.5838 91.559 53.6214 91.4643 53.6214C90.9643 53.6214 90.4714 53.6214 89.9786 53.6643L89.95 53.6714ZM25.2 53.5357C25.1236 53.5362 25.0491 53.5121 24.9874 53.4671C24.9257 53.4222 24.88 53.3586 24.8571 53.2857C24.7071 52.8 24.5643 52.3143 24.4428 51.8214C24.4212 51.7287 24.4367 51.6311 24.4861 51.5497C24.5355 51.4682 24.6149 51.4094 24.7071 51.3857C24.799 51.3642 24.8956 51.38 24.9759 51.4295C25.0562 51.479 25.1136 51.5583 25.1357 51.65C25.2571 52.1286 25.3928 52.6 25.5357 53.0786C25.565 53.1686 25.5574 53.2665 25.5145 53.3509C25.4717 53.4352 25.3971 53.4992 25.3071 53.5286L25.2 53.5357ZM24.4857 50.6214C24.402 50.6225 24.3206 50.5936 24.2564 50.5399C24.1922 50.4862 24.1494 50.4112 24.1357 50.3286C24.0428 49.8214 23.9714 49.3143 23.9143 48.8143C23.9093 48.7673 23.9138 48.7199 23.9273 48.6747C23.9408 48.6294 23.9632 48.5873 23.993 48.5508C24.0229 48.5143 24.0598 48.484 24.1014 48.4618C24.1431 48.4396 24.1887 48.4259 24.2357 48.4214C24.3294 48.4114 24.4233 48.4388 24.4969 48.4977C24.5704 48.5565 24.6178 48.6421 24.6286 48.7357C24.6786 49.2214 24.75 49.7143 24.8357 50.1643C24.8524 50.2571 24.8317 50.3527 24.7782 50.4303C24.7247 50.5079 24.6426 50.5612 24.55 50.5786L24.4857 50.6214ZM24.1643 47.6357C24.072 47.6358 23.9832 47.6001 23.9167 47.5362C23.8501 47.4723 23.8108 47.3851 23.8071 47.2929C23.8071 47.0571 23.8071 46.8286 23.8071 46.5786C23.8071 46.3286 23.8071 46.0214 23.8071 45.7357C23.8143 45.6422 23.8566 45.5549 23.9255 45.4914C23.9944 45.4278 24.0848 45.3926 24.1786 45.3929C24.2727 45.3984 24.361 45.4402 24.4249 45.5094C24.4888 45.5787 24.5234 45.67 24.5214 45.7643C24.5214 46.0357 24.5214 46.3071 24.5214 46.5786C24.5214 46.85 24.5214 47.0214 24.5214 47.2429C24.5233 47.2898 24.516 47.3366 24.4998 47.3807C24.4836 47.4247 24.4588 47.4652 24.427 47.4997C24.3952 47.5342 24.3568 47.562 24.3142 47.5817C24.2716 47.6014 24.2255 47.6124 24.1786 47.6143L24.1643 47.6357ZM24.2857 44.5714H24.2428C24.1958 44.5661 24.1503 44.5515 24.109 44.5285C24.0676 44.5054 24.0313 44.4744 24.002 44.4372C23.9728 44.4 23.9512 44.3573 23.9386 44.3117C23.926 44.2661 23.9226 44.2184 23.9286 44.1714C23.9857 43.6714 24.0714 43.1643 24.1643 42.6643C24.1728 42.6177 24.1906 42.5732 24.2165 42.5336C24.2424 42.4939 24.2759 42.4597 24.3151 42.4331C24.3544 42.4066 24.3985 42.388 24.4449 42.3787C24.4914 42.3693 24.5392 42.3693 24.5857 42.3786C24.6789 42.3976 24.761 42.4523 24.8144 42.5311C24.8678 42.6098 24.8883 42.7064 24.8714 42.8C24.7714 43.2762 24.6928 43.7524 24.6357 44.2286C24.6321 44.3196 24.5938 44.4057 24.5288 44.4695C24.4637 44.5332 24.3768 44.5697 24.2857 44.5714ZM24.8643 41.6286H24.7714C24.7252 41.6171 24.6819 41.5963 24.644 41.5675C24.6061 41.5387 24.5745 41.5024 24.5511 41.461C24.5277 41.4195 24.513 41.3737 24.5079 41.3264C24.5028 41.2791 24.5074 41.2312 24.5214 41.1857C24.6571 40.7071 24.8071 40.2143 24.9786 39.7571C24.9938 39.7124 25.0178 39.6712 25.0491 39.6358C25.0804 39.6004 25.1184 39.5716 25.1609 39.551C25.2034 39.5304 25.2496 39.5184 25.2968 39.5158C25.3439 39.5132 25.3912 39.52 25.4357 39.5357C25.5249 39.5681 25.5979 39.634 25.6392 39.7193C25.6806 39.8047 25.687 39.9028 25.6571 39.9929C25.4857 40.4571 25.3357 40.9357 25.2071 41.4214C25.1772 41.4863 25.1286 41.5407 25.0675 41.5776C25.0064 41.6145 24.9356 41.6323 24.8643 41.6286ZM25.8714 38.7714C25.8243 38.7815 25.7756 38.7815 25.7286 38.7714C25.6425 38.7323 25.575 38.6613 25.5403 38.5733C25.5057 38.4853 25.5066 38.3873 25.5428 38.3C25.75 37.8429 25.9714 37.3786 26.2071 36.9286C26.2276 36.8862 26.2564 36.8485 26.2917 36.8175C26.3271 36.7866 26.3684 36.763 26.413 36.7484C26.4577 36.7337 26.5049 36.7282 26.5517 36.7322C26.5986 36.7361 26.6441 36.7495 26.6857 36.7714C26.7277 36.7932 26.7649 36.8232 26.7952 36.8595C26.8255 36.8958 26.8483 36.9377 26.8622 36.9829C26.8762 37.0281 26.881 37.0756 26.8765 37.1227C26.8719 37.1698 26.8581 37.2155 26.8357 37.2571C26.6071 37.6929 26.3928 38.1429 26.2 38.5857C26.1721 38.6496 26.1261 38.7039 26.0678 38.742C26.0094 38.7801 25.9411 38.8002 25.8714 38.8V38.7714ZM27.2571 36.1071C27.1917 36.1085 27.1273 36.0912 27.0714 36.0571C27.0311 36.0336 26.996 36.0023 26.968 35.9649C26.94 35.9276 26.9198 35.8851 26.9085 35.8398C26.8971 35.7946 26.895 35.7475 26.9021 35.7014C26.9093 35.6553 26.9255 35.6111 26.95 35.5714C27.2071 35.1429 27.4786 34.7143 27.7714 34.2857C27.7981 34.2468 27.8323 34.2135 27.8719 34.1878C27.9115 34.162 27.9558 34.1444 28.0022 34.1357C28.0486 34.1271 28.0963 34.1277 28.1425 34.1375C28.1887 34.1473 28.2325 34.1661 28.2714 34.1929C28.3103 34.2196 28.3436 34.2537 28.3694 34.2933C28.3951 34.3329 28.4128 34.3772 28.4214 34.4236C28.43 34.4701 28.4294 34.5177 28.4196 34.5639C28.4098 34.6101 28.391 34.6539 28.3643 34.6929C28.0786 35.1071 27.8143 35.5214 27.5643 35.9357C27.5359 35.9937 27.4924 36.0429 27.4383 36.0781C27.3842 36.1133 27.3216 36.1332 27.2571 36.1357V36.1071ZM28.9428 33.6286C28.876 33.63 28.8101 33.6123 28.753 33.5774C28.6959 33.5426 28.65 33.4921 28.6207 33.432C28.5913 33.3719 28.5799 33.3046 28.5876 33.2382C28.5953 33.1718 28.6219 33.1089 28.6643 33.0571C28.9643 32.6643 29.2786 32.2643 29.6143 31.8714C29.6439 31.8352 29.6805 31.8053 29.7219 31.7835C29.7633 31.7617 29.8086 31.7484 29.8552 31.7444C29.9018 31.7404 29.9488 31.7458 29.9933 31.7603C30.0378 31.7747 30.0789 31.7979 30.1143 31.8286C30.1505 31.8582 30.1804 31.8948 30.2022 31.9362C30.224 31.9776 30.2373 32.0229 30.2413 32.0695C30.2453 32.1161 30.2399 32.1631 30.2255 32.2076C30.211 32.2521 30.1878 32.2932 30.1571 32.3286C29.8357 32.7143 29.5214 33.1 29.2286 33.4857C29.1989 33.5358 29.1573 33.5777 29.1074 33.6076C29.0575 33.6375 29.001 33.6546 28.9428 33.6571V33.6286ZM30.8786 31.3357C30.7899 31.3348 30.7051 31.2989 30.6428 31.2357C30.6087 31.2036 30.5814 31.1649 30.5628 31.1219C30.5442 31.0789 30.5346 31.0326 30.5346 30.9857C30.5346 30.9389 30.5442 30.8925 30.5628 30.8495C30.5814 30.8065 30.6087 30.7678 30.6428 30.7357C30.9809 30.3738 31.3309 30.0095 31.6928 29.6429C31.726 29.6094 31.7655 29.5828 31.8091 29.5647C31.8526 29.5465 31.8993 29.5372 31.9464 29.5372C31.9936 29.5372 32.0402 29.5465 32.0838 29.5647C32.1273 29.5828 32.1668 29.6094 32.2 29.6429C32.2659 29.7108 32.3027 29.8018 32.3027 29.8964C32.3027 29.9911 32.2659 30.082 32.2 30.15C31.8357 30.5071 31.4857 30.8643 31.1643 31.2214C31.1303 31.265 31.087 31.3004 31.0376 31.3251C30.9881 31.3499 30.9338 31.3632 30.8786 31.3643V31.3357ZM33.0214 29.1929C32.9714 29.1919 32.9221 29.1806 32.8766 29.1597C32.8312 29.1388 32.7905 29.1087 32.7571 29.0714C32.6917 29.0047 32.655 28.9149 32.655 28.8214C32.655 28.7279 32.6917 28.6382 32.7571 28.5714C33.1214 28.2357 33.4714 27.9 33.8857 27.5643C33.9582 27.503 34.0518 27.4724 34.1465 27.479C34.2413 27.4857 34.3296 27.5291 34.3928 27.6C34.4261 27.6326 34.4525 27.6715 34.4706 27.7144C34.4886 27.7573 34.4979 27.8034 34.4979 27.85C34.4979 27.8966 34.4886 27.9427 34.4706 27.9856C34.4525 28.0285 34.4261 28.0674 34.3928 28.1C34.0071 28.4357 33.6357 28.7643 33.2786 29.0929C33.2471 29.1363 33.2065 29.1723 33.1596 29.1982C33.1127 29.2241 33.0606 29.2394 33.0071 29.2429L33.0214 29.1929ZM35.3 27.2286C35.2468 27.239 35.1918 27.2367 35.1397 27.2218C35.0875 27.2069 35.0396 27.1799 35 27.1429C34.9698 27.107 34.947 27.0655 34.9331 27.0208C34.9193 26.976 34.9145 26.9289 34.9192 26.8823C34.9238 26.8356 34.9378 26.7904 34.9603 26.7493C34.9828 26.7082 35.0133 26.672 35.05 26.6429L36.25 25.7143C36.3264 25.6593 36.4212 25.636 36.5144 25.6493C36.6076 25.6626 36.692 25.7115 36.75 25.7857C36.7791 25.8229 36.8003 25.8655 36.8125 25.9111C36.8247 25.9567 36.8275 26.0042 36.8209 26.0509C36.8142 26.0976 36.7981 26.1425 36.7737 26.1829C36.7492 26.2232 36.7169 26.2582 36.6786 26.2857C36.2786 26.5929 35.8857 26.9 35.5071 27.2071C35.4431 27.2545 35.3653 27.2796 35.2857 27.2786L35.3 27.2286ZM37.6928 25.4071C37.6363 25.4077 37.5804 25.3951 37.5296 25.3703C37.4787 25.3455 37.4344 25.3092 37.4 25.2643C37.3457 25.187 37.3236 25.0917 37.3383 24.9984C37.3529 24.9051 37.4032 24.8212 37.4786 24.7643C37.8857 24.4714 38.3 24.1857 38.7214 23.9C38.7989 23.8596 38.8885 23.849 38.9733 23.8703C39.0581 23.8915 39.1322 23.9431 39.1814 24.0153C39.2307 24.0875 39.2519 24.1752 39.2408 24.2619C39.2297 24.3486 39.1873 24.4282 39.1214 24.4857C38.7071 24.7714 38.2928 25.0571 37.9 25.3429C37.8415 25.4053 37.7633 25.4457 37.6786 25.4571L37.6928 25.4071ZM40.1786 23.7214C40.1177 23.7219 40.0577 23.7071 40.0041 23.6784C39.9504 23.6497 39.9048 23.608 39.8714 23.5571C39.8204 23.4775 39.803 23.381 39.8231 23.2886C39.8432 23.1962 39.8991 23.1155 39.9786 23.0643C40.4 22.7929 40.8214 22.5214 41.2571 22.2571C41.297 22.2322 41.3413 22.2154 41.3877 22.2076C41.4341 22.1999 41.4815 22.2013 41.5273 22.212C41.5731 22.2226 41.6163 22.2421 41.6545 22.2695C41.6927 22.2969 41.7252 22.3315 41.75 22.3714C41.7985 22.4524 41.8137 22.549 41.7924 22.6409C41.771 22.7329 41.7149 22.8129 41.6357 22.8643C41.2 23.1286 40.7786 23.3929 40.3714 23.6643C40.3145 23.7198 40.2424 23.7571 40.1643 23.7714L40.1786 23.7214ZM42.7357 22.1429C42.6571 22.1436 42.5805 22.1185 42.5177 22.0713C42.4549 22.0241 42.4094 21.9575 42.3883 21.8819C42.3671 21.8062 42.3715 21.7257 42.4007 21.6528C42.43 21.5799 42.4824 21.5187 42.55 21.4786C42.9786 21.2286 43.4143 20.9714 43.8643 20.7214C43.9055 20.6988 43.9508 20.6845 43.9976 20.6795C44.0444 20.6744 44.0917 20.6786 44.1368 20.6919C44.1819 20.7052 44.224 20.7273 44.2606 20.7568C44.2972 20.7864 44.3276 20.8229 44.35 20.8643C44.3944 20.9471 44.4051 21.0439 44.3798 21.1344C44.3545 21.2249 44.2952 21.3022 44.2143 21.35C43.7714 21.5929 43.3357 21.8429 42.9143 22.0643C42.8673 22.1287 42.7989 22.1743 42.7214 22.1929L42.7357 22.1429ZM45.3357 20.7143C45.2715 20.7145 45.2083 20.6973 45.153 20.6646C45.0977 20.6319 45.0523 20.5849 45.0214 20.5286C44.9992 20.4874 44.9855 20.4423 44.981 20.3957C44.9765 20.3492 44.9814 20.3022 44.9954 20.2576C45.0094 20.213 45.0322 20.1717 45.0624 20.136C45.0926 20.1003 45.1297 20.0711 45.1714 20.05C45.6071 19.8071 46.05 19.5786 46.5 19.3357C46.5845 19.2925 46.6826 19.284 46.7733 19.312C46.8641 19.34 46.9403 19.4023 46.9857 19.4857C47.0281 19.5701 47.0353 19.6677 47.0059 19.7574C46.9764 19.8471 46.9127 19.9215 46.8286 19.9643L45.5071 20.6786C45.455 20.7077 45.3951 20.7201 45.3357 20.7143ZM48.0071 19.3357C47.9405 19.3343 47.8756 19.3149 47.819 19.2797C47.7625 19.2446 47.7164 19.1948 47.6857 19.1357C47.6433 19.0514 47.6361 18.9537 47.6655 18.864C47.695 18.7743 47.7587 18.7 47.8428 18.6571L49.2 17.9929C49.2426 17.9686 49.2898 17.9534 49.3386 17.9482C49.3873 17.943 49.4367 17.9478 49.4835 17.9625C49.5303 17.9772 49.5735 18.0014 49.6106 18.0335C49.6476 18.0656 49.6777 18.1051 49.6988 18.1493C49.72 18.1936 49.7318 18.2417 49.7335 18.2907C49.7352 18.3398 49.7268 18.3886 49.7088 18.4342C49.6909 18.4799 49.6637 18.5213 49.629 18.556C49.5943 18.5906 49.5528 18.6178 49.5071 18.6357L48.1643 19.2857C48.117 19.3155 48.0629 19.3327 48.0071 19.3357ZM50.7143 18.0286C50.6339 18.0273 50.5563 17.999 50.4941 17.9482C50.4318 17.8974 50.3885 17.827 50.3711 17.7486C50.3538 17.6701 50.3634 17.5881 50.3985 17.5157C50.4335 17.4434 50.4919 17.385 50.5643 17.35L51.9357 16.7214C52.0207 16.6893 52.1148 16.6907 52.1988 16.7255C52.2828 16.7604 52.3503 16.8259 52.3877 16.9088C52.425 16.9916 52.4293 17.0857 52.3998 17.1716C52.3702 17.2576 52.309 17.329 52.2286 17.3714L50.8643 17.9929C50.8184 18.0179 50.7666 18.0303 50.7143 18.0286ZM53.4571 16.8C53.3624 16.8189 53.264 16.7995 53.1837 16.7459C53.1033 16.6923 53.0475 16.609 53.0286 16.5143C53.0096 16.4196 53.0291 16.3212 53.0827 16.2408C53.1362 16.1605 53.2196 16.1047 53.3143 16.0857L54.7 15.4929C54.7883 15.4589 54.8863 15.4599 54.974 15.4957C55.0616 15.5316 55.1322 15.5995 55.1714 15.6857C55.207 15.7729 55.2066 15.8706 55.1705 15.9575C55.1344 16.0445 55.0654 16.1137 54.9786 16.15L53.5714 16.7714C53.5354 16.7879 53.4967 16.7976 53.4571 16.8ZM56.2286 15.6357C56.1581 15.6354 56.0892 15.6141 56.0308 15.5747C55.9723 15.5353 55.9268 15.4795 55.9 15.4143C55.8814 15.3712 55.8717 15.3249 55.8713 15.278C55.871 15.2311 55.8801 15.1846 55.8981 15.1413C55.9161 15.098 55.9426 15.0587 55.9761 15.0259C56.0095 14.993 56.0492 14.9672 56.0928 14.95L57.5214 14.3857C57.6096 14.3525 57.7073 14.3548 57.7939 14.3921C57.8805 14.4294 57.9492 14.4988 57.9857 14.5857C58.0031 14.6293 58.0117 14.6759 58.0111 14.7229C58.0104 14.7698 58.0006 14.8162 57.982 14.8593C57.9634 14.9025 57.9365 14.9415 57.9028 14.9742C57.8691 15.0069 57.8293 15.0327 57.7857 15.05L56.3571 15.6071C56.317 15.6263 56.273 15.6361 56.2286 15.6357ZM59.0286 14.5357C58.9556 14.5337 58.8849 14.5103 58.8252 14.4684C58.7655 14.4265 58.7195 14.3679 58.6928 14.3C58.6603 14.2119 58.6638 14.1145 58.7026 14.0289C58.7414 13.9433 58.8123 13.8765 58.9 13.8429L60.3286 13.3071C60.4187 13.2766 60.5171 13.2818 60.6034 13.3217C60.6898 13.3615 60.7576 13.433 60.7928 13.5214C60.825 13.6105 60.8205 13.7086 60.7803 13.7944C60.7401 13.8801 60.6676 13.9463 60.5786 13.9786L59.15 14.5071C59.1112 14.5227 59.0702 14.5324 59.0286 14.5357ZM61.8428 13.4857C61.7699 13.4837 61.6992 13.4603 61.6395 13.4184C61.5798 13.3765 61.5338 13.3179 61.5071 13.25C61.475 13.161 61.4795 13.0628 61.5196 12.9771C61.5598 12.8914 61.6324 12.8251 61.7214 12.7929L63.15 12.2857C63.1951 12.2653 63.244 12.2546 63.2935 12.2541C63.343 12.2536 63.392 12.2634 63.4376 12.2829C63.4831 12.3023 63.524 12.3311 63.5579 12.3672C63.5917 12.4034 63.6176 12.4462 63.634 12.4929C63.6504 12.5396 63.6569 12.5892 63.6531 12.6386C63.6493 12.6879 63.6353 12.736 63.612 12.7796C63.5886 12.8233 63.5564 12.8616 63.5175 12.8922C63.4785 12.9227 63.4337 12.9449 63.3857 12.9571L61.9571 13.4643C61.9206 13.478 61.8819 13.4853 61.8428 13.4857ZM64.7 12.4857C64.6257 12.4852 64.5535 12.4615 64.4933 12.4179C64.4331 12.3744 64.388 12.3132 64.3643 12.2429C64.3346 12.1538 64.3413 12.0567 64.3827 11.9725C64.4241 11.8882 64.4971 11.8237 64.5857 11.7929L66.0143 11.3071C66.1043 11.2778 66.2022 11.2855 66.2866 11.3283C66.3709 11.3712 66.4349 11.4458 66.4643 11.5357C66.4799 11.5798 66.4866 11.6265 66.4839 11.6732C66.4812 11.7198 66.4692 11.7655 66.4485 11.8074C66.4279 11.8494 66.399 11.8868 66.3637 11.9174C66.3284 11.948 66.2873 11.9712 66.2428 11.9857L64.8143 12.4714L64.7 12.4857ZM67.5571 11.5357C67.4808 11.5362 67.4063 11.5121 67.3445 11.4672C67.2828 11.4222 67.2372 11.3586 67.2143 11.2857C67.1869 11.1957 67.1954 11.0986 67.238 11.0147C67.2806 10.9308 67.354 10.8667 67.4428 10.8357L68.8714 10.3786C68.9164 10.3642 68.9638 10.3589 69.0109 10.363C69.058 10.3671 69.1038 10.3805 69.1456 10.4025C69.1875 10.4244 69.2246 10.4544 69.2548 10.4908C69.2849 10.5271 69.3076 10.5691 69.3214 10.6143C69.3357 10.6588 69.3409 10.7058 69.3367 10.7523C69.3325 10.7989 69.319 10.8442 69.2971 10.8855C69.2751 10.9268 69.2451 10.9632 69.2088 10.9927C69.1725 11.0222 69.1306 11.0441 69.0857 11.0571L67.6571 11.5214L67.5571 11.5357ZM70.4143 10.6286C70.3382 10.6279 70.2642 10.6035 70.2027 10.5586C70.1412 10.5138 70.0953 10.4508 70.0714 10.3786C70.0444 10.2876 70.0539 10.1897 70.0979 10.1057C70.1419 10.0217 70.217 9.95812 70.3071 9.92857L71.7357 9.49286C71.7802 9.47859 71.8272 9.4734 71.8738 9.47759C71.9203 9.48177 71.9656 9.49525 72.0069 9.51722C72.0482 9.53919 72.0846 9.56922 72.1141 9.60552C72.1436 9.64182 72.1655 9.68366 72.1786 9.72857C72.2054 9.81855 72.1957 9.91547 72.1516 9.99836C72.1074 10.0812 72.0325 10.1434 71.9428 10.1714L70.5143 10.6143L70.4143 10.6286ZM73.2714 9.75714C73.1767 9.7704 73.0806 9.74549 73.0042 9.68789C72.9279 9.63029 72.8775 9.54472 72.8643 9.45C72.851 9.35528 72.8759 9.25917 72.9335 9.18282C72.9911 9.10646 73.0767 9.05612 73.1714 9.04286L74.6 8.62857C74.645 8.61443 74.6924 8.60954 74.7393 8.61418C74.7863 8.61882 74.8318 8.63291 74.8732 8.6556C74.9146 8.67828 74.9509 8.70909 74.9801 8.74618C75.0092 8.78327 75.0306 8.82588 75.0428 8.87143C75.0694 8.96236 75.0587 9.0601 75.0131 9.14315C74.9676 9.22621 74.8909 9.28776 74.8 9.31429L73.3714 9.72857C73.3429 9.74464 73.3112 9.75438 73.2786 9.75714H73.2714ZM76.1286 8.92857C76.0338 8.94183 75.9377 8.91692 75.8614 8.85932C75.785 8.80172 75.7347 8.71615 75.7214 8.62143C75.7082 8.52671 75.7331 8.4306 75.7907 8.35425C75.8483 8.27789 75.9338 8.22755 76.0286 8.21429L77.4571 7.81429C77.504 7.80162 77.553 7.79832 77.6011 7.80457C77.6493 7.81082 77.6958 7.8265 77.7379 7.85071C77.78 7.87491 77.817 7.90718 77.8466 7.94567C77.8763 7.98415 77.898 8.0281 77.9107 8.075C77.9234 8.1219 77.9267 8.17084 77.9204 8.21901C77.9142 8.26719 77.8985 8.31366 77.8743 8.35578C77.8501 8.3979 77.8178 8.43484 77.7793 8.46448C77.7408 8.49413 77.6969 8.51591 77.65 8.52857L76.2214 8.92857C76.2048 8.93052 76.188 8.93052 76.1714 8.92857H76.1286ZM79.0286 8.13572C78.9338 8.14803 78.8381 8.12221 78.7624 8.06394C78.6867 8.00567 78.6373 7.91972 78.625 7.825C78.6127 7.73028 78.6385 7.63455 78.6968 7.55886C78.755 7.48318 78.841 7.43374 78.9357 7.42143L80.2214 7.07857C80.3161 7.05489 80.4164 7.06981 80.5001 7.12004C80.5838 7.17028 80.6442 7.25171 80.6678 7.34643C80.6915 7.44115 80.6766 7.5414 80.6264 7.62512C80.5761 7.70884 80.4947 7.76918 80.4 7.79286L79.1214 8.13572H79.0286Z" fill="#CED6DE"/>
<path fill-rule="evenodd" clip-rule="evenodd" d="M52.4857 91.1071H51.0714V89.6786H50.1214V91.1071H48.7072V92.0571H50.1214V93.4929H51.0714V92.0571H52.4857V91.1071Z" fill="#DAE1E7"/>
<path d="M82.0072 8.98571C83.3051 8.98571 84.3572 7.93358 84.3572 6.63571C84.3572 5.33784 83.3051 4.28571 82.0072 4.28571C80.7094 4.28571 79.6572 5.33784 79.6572 6.63571C79.6572 7.93358 80.7094 8.98571 82.0072 8.98571Z" fill="white"/>
<path d="M82.0072 9.34286C81.4718 9.34286 80.9484 9.18409 80.5032 8.88662C80.058 8.58916 79.711 8.16636 79.5061 7.67169C79.3012 7.17703 79.2476 6.63271 79.3521 6.10758C79.4565 5.58244 79.7144 5.10008 80.093 4.72147C80.4716 4.34287 80.9539 4.08504 81.4791 3.98059C82.0042 3.87613 82.5485 3.92974 83.0432 4.13464C83.5378 4.33954 83.9606 4.68652 84.2581 5.13171C84.5556 5.57689 84.7143 6.10029 84.7143 6.63571C84.7143 7.35369 84.4291 8.04227 83.9214 8.54995C83.4137 9.05764 82.7252 9.34286 82.0072 9.34286ZM82.0072 4.64286C81.613 4.64286 81.2277 4.75974 80.9 4.97871C80.5723 5.19769 80.3169 5.50893 80.166 5.87308C80.0152 6.23723 79.9757 6.63792 80.0526 7.0245C80.1295 7.41108 80.3193 7.76617 80.598 8.04488C80.8767 8.32358 81.2318 8.51338 81.6184 8.59028C82.005 8.66717 82.4057 8.62771 82.7698 8.47687C83.134 8.32604 83.4452 8.07061 83.6642 7.74289C83.8832 7.41516 84.0001 7.02986 84.0001 6.63571C84.0001 6.37401 83.9485 6.11487 83.8484 5.87308C83.7482 5.6313 83.6014 5.41161 83.4164 5.22655C83.2313 5.0415 83.0116 4.8947 82.7698 4.79455C82.528 4.6944 82.2689 4.64286 82.0072 4.64286Z" fill="#CED6DE"/>
<path d="M37.2358 74.8357H41.3286C49.0104 74.8357 56.3776 77.8873 61.8095 83.3192C67.2413 88.751 70.2929 96.1182 70.2929 103.8V104.786H9.28576C9.02434 104.786 8.77362 104.682 8.58876 104.497C8.4039 104.312 8.30005 104.061 8.30005 103.8C8.30005 96.1231 11.3477 88.7603 16.7734 83.3292C22.1991 77.8982 29.5589 74.8433 37.2358 74.8357Z" fill="#C9C0FF"/>
<path d="M70.3 105.5H9.28569C8.8354 105.498 8.40409 105.318 8.08569 105C7.76728 104.682 7.58757 104.25 7.58569 103.8C7.59514 95.9317 10.725 88.3883 16.2888 82.8245C21.8525 77.2608 29.3959 74.1309 37.2643 74.1214H41.3643C49.2326 74.1309 56.776 77.2608 62.3397 82.8245C67.9035 88.3883 71.0334 95.9317 71.0428 103.8V104.786C71.0429 104.882 71.0235 104.977 70.9859 105.066C70.9482 105.154 70.893 105.234 70.8236 105.301C70.7542 105.368 70.6721 105.42 70.5821 105.454C70.4921 105.488 70.3962 105.504 70.3 105.5ZM37.2357 75.55C29.7462 75.5594 22.5662 78.5388 17.2704 83.8347C11.9745 89.1305 8.99514 96.3105 8.98569 103.8C8.98569 103.872 9.01429 103.941 9.06519 103.992C9.1161 104.043 9.18513 104.071 9.25712 104.071H69.5857V103.8C69.5762 96.3105 66.5969 89.1305 61.301 83.8347C56.0052 78.5388 48.8252 75.5594 41.3357 75.55H37.2357Z" fill="#717790"/>
<path d="M39.2857 71.0357C46.5916 71.0357 52.5143 65.1131 52.5143 57.8071C52.5143 50.5012 46.5916 44.5786 39.2857 44.5786C31.9798 44.5786 26.0571 50.5012 26.0571 57.8071C26.0571 65.1131 31.9798 71.0357 39.2857 71.0357Z" fill="#C9C0FF"/>
<path d="M39.2858 71.7571C36.5264 71.7586 33.8286 70.9416 31.5336 69.4096C29.2386 67.8776 27.4495 65.6994 26.3926 63.1505C25.3356 60.6016 25.0583 57.7965 25.5958 55.09C26.1333 52.3835 27.4613 49.8972 29.412 47.9455C31.3626 45.9939 33.8483 44.6646 36.5545 44.1257C39.2607 43.5869 42.066 43.8627 44.6154 44.9183C47.1648 45.974 49.344 47.762 50.8771 50.0562C52.4103 52.3504 53.2286 55.0478 53.2286 57.8071C53.2267 61.5051 51.7574 65.0511 49.1432 67.6667C46.529 70.2822 42.9837 71.7534 39.2858 71.7571ZM39.2858 45.3286C36.8071 45.3272 34.3838 46.0614 32.3228 47.4384C30.2619 48.8153 28.6559 50.7729 27.7083 53.0633C26.7608 55.3536 26.5143 57.8737 27.0001 60.3042C27.486 62.7348 28.6822 64.9665 30.4374 66.7166C32.1925 68.4668 34.4276 69.6566 36.8596 70.1355C39.2915 70.6144 41.8108 70.3607 44.0985 69.4066C46.3861 68.4525 48.3392 66.841 49.7102 64.7761C51.0812 62.7111 51.8085 60.2858 51.8 57.8071C51.7963 54.4893 50.4766 51.3084 48.1305 48.9624C45.7845 46.6163 42.6036 45.2966 39.2858 45.2929V45.3286Z" fill="#717790"/>
<path d="M110.093 74.8357H114.186C121.867 74.8357 129.235 77.8873 134.667 83.3192C140.098 88.751 143.15 96.1182 143.15 103.8V104.786H82.1428C81.8814 104.786 81.6307 104.682 81.4458 104.497C81.261 104.312 81.1571 104.061 81.1571 103.8C81.1571 96.1231 84.2048 88.7603 89.6304 83.3292C95.0561 77.8982 102.416 74.8433 110.093 74.8357Z" fill="#C9C0FF"/>
<path d="M143.157 105.5H82.1429C81.6926 105.498 81.2613 105.318 80.9429 105C80.6245 104.682 80.4448 104.25 80.4429 103.8C80.4523 95.9317 83.5822 88.3883 89.146 82.8245C94.7097 77.2608 102.253 74.1309 110.121 74.1214H114.221C122.09 74.1309 129.633 77.2608 135.197 82.8245C140.761 88.3883 143.891 95.9317 143.9 103.8V104.786C143.9 104.882 143.881 104.977 143.843 105.066C143.805 105.154 143.75 105.234 143.681 105.301C143.611 105.368 143.529 105.42 143.439 105.454C143.349 105.488 143.253 105.504 143.157 105.5ZM110.093 75.55C102.603 75.5594 95.4234 78.5388 90.1275 83.8347C84.8317 89.1305 81.8523 96.3105 81.8429 103.8C81.8429 103.872 81.8715 103.941 81.9224 103.992C81.9733 104.043 82.0423 104.071 82.1143 104.071H142.443V103.8C142.433 96.3105 139.454 89.1305 134.158 83.8347C128.862 78.5388 121.682 75.5594 114.193 75.55H110.093Z" fill="#717790"/>
<path d="M112.143 71.0357C119.449 71.0357 125.371 65.1131 125.371 57.8071C125.371 50.5012 119.449 44.5786 112.143 44.5786C104.837 44.5786 98.9143 50.5012 98.9143 57.8071C98.9143 65.1131 104.837 71.0357 112.143 71.0357Z" fill="#C9C0FF"/>
<path d="M112.143 71.7571C109.383 71.7586 106.686 70.9416 104.391 69.4096C102.096 67.8776 100.307 65.6994 99.2496 63.1505C98.1927 60.6016 97.9154 57.7965 98.4528 55.09C98.9903 52.3835 100.318 49.8972 102.269 47.9455C104.22 45.9939 106.705 44.6646 109.412 44.1257C112.118 43.5869 114.923 43.8627 117.472 44.9183C120.022 45.974 122.201 47.762 123.734 50.0562C125.267 52.3504 126.086 55.0478 126.086 57.8071C126.084 61.5051 124.614 65.0511 122 67.6667C119.386 70.2822 115.841 71.7534 112.143 71.7571ZM112.143 45.3286C109.666 45.3272 107.244 46.0605 105.184 47.4358C103.123 48.8112 101.517 50.7667 100.569 53.055C99.6202 55.3432 99.3716 57.8615 99.8545 60.2911C100.337 62.7206 101.53 64.9524 103.282 66.704C105.033 68.4556 107.265 69.6483 109.695 70.1312C112.124 70.6141 114.642 70.3655 116.931 69.4169C119.219 68.4683 121.174 66.8623 122.55 64.8021C123.925 62.7418 124.659 60.32 124.657 57.8429C124.66 56.197 124.338 54.5667 123.711 53.0451C123.083 51.5235 122.162 50.1405 121 48.975C119.838 47.8095 118.458 46.8845 116.938 46.2527C115.418 45.6209 113.789 45.2947 112.143 45.2929V45.3286Z" fill="#717790"/>
<g opacity="0.2">
<path opacity="0.2" d="M50.85 76.4286C50.85 76.4286 31.6571 86.6571 30.2786 104.771H42.8571L60.0643 81.6786L50.85 76.4286Z" fill="#717790"/>
</g>
<g opacity="0.2">
<path opacity="0.2" d="M120.043 104.143C120.043 104.143 115.279 82.9214 98.1857 76.7857L93.1857 80.3L94.8642 88.8714L112.143 104.786L120.043 104.143Z" fill="#717790"/>
</g>
<path d="M72.2286 74.7643H77.7786C88.1883 74.7643 98.1717 78.8995 105.533 86.2603C112.893 93.6211 117.029 103.605 117.029 114.014V115.343H34.2857C33.9334 115.343 33.5954 115.203 33.3463 114.954C33.0971 114.705 32.9572 114.367 32.9572 114.014C32.9572 103.605 37.0924 93.6211 44.4532 86.2603C51.814 78.8995 61.7974 74.7643 72.2072 74.7643H72.2286Z" fill="#C9C0FF"/>
<path d="M117.021 116.064H34.2857C33.7432 116.062 33.2236 115.846 32.8407 115.461C32.4578 115.077 32.2428 114.557 32.2428 114.014C32.2523 103.412 36.4707 93.2468 43.9711 85.7531C51.4716 78.2594 61.6403 74.05 72.2428 74.05H77.7857C88.3943 74.05 98.5685 78.2643 106.07 85.7657C113.571 93.2672 117.786 103.441 117.786 114.05V115.386C117.781 115.481 117.758 115.574 117.717 115.66C117.675 115.746 117.618 115.823 117.546 115.886C117.475 115.949 117.392 115.998 117.302 116.028C117.212 116.059 117.116 116.071 117.021 116.064ZM72.2285 75.4786C62.0049 75.488 52.2033 79.556 44.9775 86.7885C37.7517 94.021 33.6928 103.826 33.6928 114.05C33.6928 114.214 33.7573 114.371 33.8723 114.487C33.9873 114.603 34.1435 114.67 34.3071 114.671H116.307V114.05C116.298 103.826 112.23 94.0248 104.997 86.799C97.7646 79.5731 87.9593 75.5143 77.7357 75.5143L72.2285 75.4786Z" fill="#717790"/>
<path d="M75 70.5857C84.9017 70.5857 92.9286 62.5588 92.9286 52.6571C92.9286 42.7555 84.9017 34.7286 75 34.7286C65.0983 34.7286 57.0714 42.7555 57.0714 52.6571C57.0714 62.5588 65.0983 70.5857 75 70.5857Z" fill="#C9C0FF"/>
<path d="M75 71.3C71.3128 71.3 67.7084 70.2066 64.6426 68.1581C61.5768 66.1096 59.1873 63.198 57.7763 59.7915C56.3653 56.3849 55.9961 52.6365 56.7154 49.0201C57.4347 45.4037 59.2103 42.0819 61.8176 39.4747C64.4248 36.8674 67.7466 35.0918 71.363 34.3725C74.9794 33.6532 78.7278 34.0224 82.1344 35.4334C85.5409 36.8444 88.4525 39.2339 90.501 42.2997C92.5495 45.3655 93.6429 48.9699 93.6429 52.6571C93.6372 57.5998 91.6713 62.3384 88.1763 65.8334C84.6813 69.3284 79.9427 71.2943 75 71.3ZM75 35.4429C71.5954 35.4429 68.2672 36.4525 65.4363 38.344C62.6054 40.2355 60.399 42.924 59.0961 46.0695C57.7932 49.215 57.4523 52.6762 58.1165 56.0155C58.7807 59.3547 60.4202 62.422 62.8277 64.8295C65.2352 67.2369 68.3025 68.8764 71.6417 69.5407C74.9809 70.2049 78.4422 69.864 81.5877 68.5611C84.7332 67.2582 87.4217 65.0518 89.3132 62.2209C91.2047 59.39 92.2143 56.0618 92.2143 52.6571C92.2087 48.0934 90.3932 43.7181 87.1661 40.4911C83.939 37.264 79.5638 35.4485 75 35.4429Z" fill="#717790"/>
</svg>
