<svg width="64" height="64" viewBox="0 0 64 64" fill="none" xmlns="http://www.w3.org/2000/svg">
<path d="M54.3992 3.2002H9.59922C6.06422 3.2002 3.19922 6.0652 3.19922 9.6002V54.4002C3.19922 57.9352 6.06422 60.8002 9.59922 60.8002H54.3992C57.9342 60.8002 60.7992 57.9352 60.7992 54.4002V9.6002C60.7992 6.0652 57.9342 3.2002 54.3992 3.2002V3.2002Z" stroke="#BBDCFE" stroke-width="4.48" stroke-linecap="round" stroke-linejoin="round"/>
<path d="M32.64 32H37.76C38.113 32 38.4 32.287 38.4 32.64V37.76C38.4 38.113 38.113 38.4 37.76 38.4H32.64C32.287 38.4 32 38.113 32 37.76V32.64C32 32.287 32.287 32 32.64 32Z" fill="#BBDCFE"/>
<path d="M32.64 44.7998H37.76C38.113 44.7998 38.4 45.0868 38.4 45.4398V50.5598C38.4 50.9128 38.113 51.1998 37.76 51.1998H32.64C32.287 51.1998 32 50.9128 32 50.5598V45.4398C32 45.0868 32.287 44.7998 32.64 44.7998Z" fill="#BBDCFE"/>
<path d="M45.4408 44.7998H50.5608C50.9138 44.7998 51.2008 45.0868 51.2008 45.4398V50.5598C51.2008 50.9128 50.9138 51.1998 50.5608 51.1998H45.4408C45.0878 51.1998 44.8008 50.9128 44.8008 50.5598V45.4398C44.8008 45.0868 45.0878 44.7998 45.4408 44.7998Z" fill="#BBDCFE"/>
<path d="M45.4408 32H50.5608C50.9138 32 51.2008 32.287 51.2008 32.64V37.76C51.2008 38.113 50.9138 38.4 50.5608 38.4H45.4408C45.0878 38.4 44.8008 38.113 44.8008 37.76V32.64C44.8008 32.287 45.0878 32 45.4408 32Z" fill="#BBDCFE"/>
<path d="M3.19922 22.4004H60.7992" stroke="#BBDCFE" stroke-width="4.48" stroke-linecap="round" stroke-linejoin="round"/>
<path d="M22.4004 60.8004V22.4004" stroke="#BBDCFE" stroke-width="4.48" stroke-linecap="round" stroke-linejoin="round"/>
</svg>
